<svg xmlns="http://www.w3.org/2000/svg" xmlns:xlink="http://www.w3.org/1999/xlink" width="600" zoomAndPan="magnify" viewBox="0 0 450 112.499997" height="150" preserveAspectRatio="xMidYMid meet" version="1.0"><defs><g/><clipPath id="1fc2fe5b35"><path d="M 136.109375 0 L 313.820312 0 L 313.820312 112 L 136.109375 112 Z M 136.109375 0 " clip-rule="nonzero"/></clipPath></defs><g fill="#6cf1b5" fill-opacity="1"><g transform="translate(33.930378, 70.519844)"><g><path d="M 18.203125 -4.875 L 8.03125 -4.875 L 6.34375 0 L 0.953125 0 L 10.15625 -25.609375 L 16.125 -25.609375 L 25.3125 0 L 19.890625 0 Z M 16.8125 -8.984375 L 13.125 -19.671875 L 9.421875 -8.984375 Z M 16.8125 -8.984375 "/></g></g></g><g fill="#6cf1b5" fill-opacity="1"><g transform="translate(82.769088, 70.519844)"><g><path d="M 24.40625 0 L 19.265625 0 L 7.65625 -17.546875 L 7.65625 0 L 2.53125 0 L 2.53125 -25.609375 L 7.65625 -25.609375 L 19.265625 -8.03125 L 19.265625 -25.609375 L 24.40625 -25.609375 Z M 24.40625 0 "/></g></g></g><g fill="#6cf1b5" fill-opacity="1"><g transform="translate(132.303848, 70.519844)"><g><path d="M 18.203125 -4.875 L 8.03125 -4.875 L 6.34375 0 L 0.953125 0 L 10.15625 -25.609375 L 16.125 -25.609375 L 25.3125 0 L 19.890625 0 Z M 16.8125 -8.984375 L 13.125 -19.671875 L 9.421875 -8.984375 Z M 16.8125 -8.984375 "/></g></g></g><g fill="#6cf1b5" fill-opacity="1"><g transform="translate(181.142558, 70.519844)"><g><path d="M 7.65625 -4.0625 L 16.078125 -4.0625 L 16.078125 0 L 2.53125 0 L 2.53125 -25.578125 L 7.65625 -25.578125 Z M 7.65625 -4.0625 "/></g></g></g><g fill="#6cf1b5" fill-opacity="1"><g transform="translate(220.566323, 70.519844)"><g><path d="M 22.859375 -25.578125 L 14.21875 -8.90625 L 14.21875 0 L 9.09375 0 L 9.09375 -8.90625 L 0.40625 -25.578125 L 6.1875 -25.578125 L 11.6875 -13.890625 L 17.140625 -25.578125 Z M 22.859375 -25.578125 "/></g></g></g><g fill="#6cf1b5" fill-opacity="1"><g transform="translate(266.474318, 70.519844)"><g><path d="M 19.9375 -25.578125 L 19.9375 -21.4375 L 13.125 -21.4375 L 13.125 0 L 7.984375 0 L 7.984375 -21.4375 L 1.171875 -21.4375 L 1.171875 -25.578125 Z M 19.9375 -25.578125 "/></g></g></g><g fill="#6cf1b5" fill-opacity="1"><g transform="translate(310.220895, 70.519844)"><g><path d="M 7.65625 -25.578125 L 7.65625 0 L 2.53125 0 L 2.53125 -25.578125 Z M 7.65625 -25.578125 "/></g></g></g><g fill="#6cf1b5" fill-opacity="1"><g transform="translate(343.013897, 70.519844)"><g><path d="M 1.28125 -12.828125 C 1.28125 -15.335938 1.847656 -17.585938 2.984375 -19.578125 C 4.117188 -21.578125 5.671875 -23.128906 7.640625 -24.234375 C 9.609375 -25.347656 11.8125 -25.90625 14.25 -25.90625 C 17.113281 -25.90625 19.617188 -25.171875 21.765625 -23.703125 C 23.910156 -22.242188 25.410156 -20.21875 26.265625 -17.625 L 20.375 -17.625 C 19.789062 -18.84375 18.96875 -19.753906 17.90625 -20.359375 C 16.84375 -20.972656 15.613281 -21.28125 14.21875 -21.28125 C 12.726562 -21.28125 11.398438 -20.929688 10.234375 -20.234375 C 9.078125 -19.546875 8.175781 -18.566406 7.53125 -17.296875 C 6.882812 -16.023438 6.5625 -14.535156 6.5625 -12.828125 C 6.5625 -11.140625 6.882812 -9.65625 7.53125 -8.375 C 8.175781 -7.09375 9.078125 -6.101562 10.234375 -5.40625 C 11.398438 -4.707031 12.726562 -4.359375 14.21875 -4.359375 C 15.613281 -4.359375 16.84375 -4.671875 17.90625 -5.296875 C 18.96875 -5.921875 19.789062 -6.84375 20.375 -8.0625 L 26.265625 -8.0625 C 25.410156 -5.445312 23.914062 -3.410156 21.78125 -1.953125 C 19.644531 -0.503906 17.132812 0.21875 14.25 0.21875 C 11.8125 0.21875 9.609375 -0.332031 7.640625 -1.4375 C 5.671875 -2.550781 4.117188 -4.097656 2.984375 -6.078125 C 1.847656 -8.054688 1.28125 -10.304688 1.28125 -12.828125 Z M 1.28125 -12.828125 "/></g></g></g><g fill="#6cf1b5" fill-opacity="1"><g transform="translate(393.757582, 70.519844)"><g><path d="M 11.359375 0.25 C 9.578125 0.25 7.96875 -0.0507812 6.53125 -0.65625 C 5.101562 -1.269531 3.972656 -2.148438 3.140625 -3.296875 C 2.316406 -4.441406 1.894531 -5.796875 1.875 -7.359375 L 7.359375 -7.359375 C 7.429688 -6.316406 7.800781 -5.488281 8.46875 -4.875 C 9.144531 -4.257812 10.070312 -3.953125 11.25 -3.953125 C 12.445312 -3.953125 13.382812 -4.238281 14.0625 -4.8125 C 14.75 -5.382812 15.09375 -6.140625 15.09375 -7.078125 C 15.09375 -7.828125 14.859375 -8.445312 14.390625 -8.9375 C 13.929688 -9.425781 13.351562 -9.8125 12.65625 -10.09375 C 11.957031 -10.375 11 -10.6875 9.78125 -11.03125 C 8.125 -11.519531 6.773438 -12 5.734375 -12.46875 C 4.691406 -12.945312 3.796875 -13.664062 3.046875 -14.625 C 2.304688 -15.59375 1.9375 -16.882812 1.9375 -18.5 C 1.9375 -20.019531 2.316406 -21.335938 3.078125 -22.453125 C 3.835938 -23.578125 4.898438 -24.4375 6.265625 -25.03125 C 7.628906 -25.632812 9.191406 -25.9375 10.953125 -25.9375 C 13.585938 -25.9375 15.726562 -25.296875 17.375 -24.015625 C 19.03125 -22.734375 19.941406 -20.945312 20.109375 -18.65625 L 14.46875 -18.65625 C 14.425781 -19.53125 14.054688 -20.253906 13.359375 -20.828125 C 12.660156 -21.398438 11.738281 -21.6875 10.59375 -21.6875 C 9.59375 -21.6875 8.789062 -21.429688 8.1875 -20.921875 C 7.59375 -20.410156 7.296875 -19.664062 7.296875 -18.6875 C 7.296875 -18 7.519531 -17.429688 7.96875 -16.984375 C 8.414062 -16.535156 8.972656 -16.171875 9.640625 -15.890625 C 10.316406 -15.609375 11.269531 -15.28125 12.5 -14.90625 C 14.15625 -14.425781 15.507812 -13.941406 16.5625 -13.453125 C 17.613281 -12.960938 18.515625 -12.226562 19.265625 -11.25 C 20.023438 -10.269531 20.40625 -8.988281 20.40625 -7.40625 C 20.40625 -6.03125 20.050781 -4.753906 19.34375 -3.578125 C 18.632812 -2.410156 17.597656 -1.476562 16.234375 -0.78125 C 14.867188 -0.09375 13.242188 0.25 11.359375 0.25 Z M 11.359375 0.25 "/></g></g></g><g clip-path="url(#1fc2fe5b35)"><path fill="#b4b4b4" d="M 313.105469 111.988281 C 312.898438 111.988281 312.722656 111.914062 312.582031 111.761719 C 309.058594 108.039062 300.121094 108.710938 295.320312 109.070312 L 294.789062 109.109375 C 294.207031 109.152344 293.613281 109.222656 293.042969 109.292969 C 291.441406 109.484375 289.789062 109.683594 288.074219 109.320312 C 286.394531 108.964844 284.886719 108.183594 283.429688 107.425781 C 282.164062 106.769531 280.96875 106.148438 279.683594 105.792969 C 274.566406 104.371094 269.195312 104.792969 264 105.199219 C 258.03125 105.667969 251.855469 106.15625 245.855469 103.933594 C 241.277344 102.234375 237.640625 101.480469 233.664062 102.960938 C 233.242188 103.117188 232.820312 103.296875 232.414062 103.472656 C 230.734375 104.195312 228.996094 104.945312 226.84375 104.164062 C 226.324219 103.976562 225.832031 103.59375 225.359375 103.222656 C 225.269531 103.152344 225.179688 103.085938 225.097656 103.019531 C 225.042969 104.152344 224.851562 105.222656 224.390625 106.105469 C 224.261719 106.351562 224.0625 106.480469 223.785156 106.492188 C 222.628906 106.554688 221.65625 105.679688 221.351562 104.316406 C 221.082031 103.105469 221.410156 101.554688 222.761719 101.007812 C 223.035156 100.898438 223.320312 100.835938 223.613281 100.832031 C 223.585938 100.359375 223.546875 99.878906 223.507812 99.417969 C 223.4375 98.53125 223.371094 97.691406 223.371094 96.941406 C 223.371094 95.96875 223.371094 95 223.371094 94.03125 C 223.371094 92.125 223.371094 90.152344 223.371094 88.210938 C 223.386719 80.21875 222.980469 71.441406 222.128906 61.382812 C 221.425781 53.078125 218.988281 44.890625 216.550781 37.214844 C 216.375 36.648438 216.191406 35.78125 215.980469 34.773438 C 215.90625 34.414062 215.824219 34.023438 215.738281 33.613281 C 214.34375 33.320312 213.132812 32.742188 212.183594 31.929688 C 210.882812 30.8125 209.453125 28.699219 210.019531 24.964844 C 210.066406 24.671875 210.226562 24.480469 210.507812 24.386719 C 210.585938 24.363281 210.660156 24.339844 210.734375 24.320312 C 210.296875 24.347656 209.851562 24.339844 209.433594 24.332031 C 209.125 24.324219 208.804688 24.320312 208.660156 24.339844 C 207.746094 24.449219 207.179688 24.699219 206.976562 25.074219 C 206.546875 25.867188 207.417969 27.640625 208.183594 29.199219 C 209.117188 31.097656 210.082031 33.058594 209.746094 34.730469 C 209.601562 35.464844 209.214844 36.078125 208.589844 36.554688 C 209.859375 39.71875 211.359375 42.894531 212.8125 45.972656 C 215.3125 51.269531 217.902344 56.746094 219.492188 62.5 C 221.992188 71.558594 218.929688 82.378906 216.878906 88.019531 C 215.390625 92.125 214.960938 96.5625 215.644531 100.328125 C 217.179688 100.363281 218.640625 100.6875 219.59375 101.667969 C 220.453125 102.558594 220.847656 103.605469 220.675781 104.542969 C 220.539062 105.277344 220.058594 105.871094 219.320312 106.21875 C 218.492188 106.605469 217.726562 106.652344 217.050781 106.363281 C 215.765625 105.808594 215.234375 104.210938 214.847656 103.046875 L 214.84375 103.035156 C 214.710938 102.632812 214.589844 102.222656 214.484375 101.800781 C 213.527344 101.855469 212.578125 101.988281 211.824219 102.09375 L 211.324219 102.164062 C 207.640625 102.664062 203.949219 103.40625 200.375 104.121094 C 194.082031 105.378906 187.574219 106.683594 180.867188 106.734375 C 179.300781 106.746094 177.683594 106.847656 176.121094 106.945312 C 172.695312 107.160156 169.152344 107.378906 165.652344 106.722656 C 163.589844 106.335938 161.507812 105.847656 159.492188 105.375 C 157.941406 105.007812 156.335938 104.632812 154.753906 104.308594 C 151.765625 103.6875 148.71875 103.699219 145.601562 103.769531 C 141.445312 103.863281 138.195312 104.644531 137.519531 105.714844 C 137.410156 105.871094 137.257812 105.96875 137.070312 106.007812 C 136.882812 106.046875 136.707031 106.015625 136.542969 105.910156 C 136.378906 105.808594 136.273438 105.664062 136.226562 105.476562 C 136.179688 105.292969 136.203125 105.113281 136.296875 104.945312 C 136.933594 103.933594 138.398438 103.226562 140.777344 102.785156 C 142.640625 102.4375 144.578125 102.347656 145.570312 102.324219 C 148.773438 102.253906 151.910156 102.242188 155.042969 102.890625 C 156.644531 103.222656 158.257812 103.601562 159.816406 103.96875 C 161.816406 104.441406 163.886719 104.925781 165.917969 105.308594 C 169.238281 105.929688 172.691406 105.714844 176.03125 105.503906 C 177.613281 105.40625 179.246094 105.304688 180.855469 105.292969 C 187.421875 105.242188 193.863281 103.953125 200.089844 102.707031 C 203.683594 101.984375 207.398438 101.242188 211.128906 100.734375 C 211.28125 100.714844 211.445312 100.691406 211.617188 100.667969 C 212.382812 100.558594 213.269531 100.433594 214.183594 100.371094 C 213.511719 96.402344 213.972656 91.789062 215.515625 87.53125 C 217.507812 82.050781 220.492188 71.5625 218.09375 62.890625 C 216.539062 57.257812 213.976562 51.835938 211.5 46.59375 C 210.0625 43.546875 208.574219 40.398438 207.300781 37.242188 C 204.792969 38.136719 200.328125 37.957031 193.992188 36.703125 C 187.761719 35.472656 182.007812 33.660156 181.371094 33.457031 C 178.8125 32.640625 177.214844 31.023438 176.625 28.652344 C 175.710938 25.003906 177.453125 20.363281 179.070312 17.113281 C 181.035156 13.167969 183.632812 9.640625 185.335938 7.894531 C 187.644531 5.523438 190.210938 3.648438 192.972656 2.320312 C 195.921875 0.898438 199.011719 0.144531 202.148438 0.078125 C 205.628906 0.0078125 210.929688 0.316406 216.40625 2.175781 C 221.589844 3.941406 225.625 6.65625 228.398438 10.246094 C 230.40625 12.847656 231.609375 15.761719 232.769531 18.578125 C 232.988281 19.105469 233.210938 19.644531 233.4375 20.179688 C 233.503906 20.332031 233.511719 20.492188 233.46875 20.652344 C 233.425781 20.816406 233.335938 20.945312 233.199219 21.042969 C 233.0625 21.144531 232.914062 21.191406 232.746094 21.183594 C 232.578125 21.179688 232.429688 21.121094 232.300781 21.011719 L 232.125 20.863281 C 229.257812 18.421875 227.683594 17.082031 223.683594 16.863281 C 219.207031 16.621094 214.601562 16.6875 210.148438 16.753906 C 208.078125 16.785156 205.9375 16.816406 203.835938 16.816406 C 203.5 16.816406 203.167969 16.816406 202.839844 16.816406 C 197.746094 16.804688 193.730469 16.796875 189.289062 19.386719 C 187.105469 20.65625 186.015625 22.277344 184.867188 23.992188 C 184.582031 24.414062 184.292969 24.84375 183.984375 25.277344 C 185.949219 24.519531 187.851562 23.683594 189.714844 22.867188 C 195.492188 20.328125 200.953125 17.929688 207.691406 17.878906 C 208.757812 17.871094 209.90625 17.828125 211.117188 17.785156 C 216.910156 17.574219 224.117188 17.316406 228.8125 20.664062 C 230.769531 22.054688 231.613281 23.660156 231.332031 25.429688 C 231 27.523438 229.097656 29.296875 227.558594 30.414062 C 225.597656 31.839844 223.453125 32.800781 222.101562 33.226562 C 220.492188 33.730469 218.828125 33.933594 217.265625 33.828125 C 217.3125 34.050781 217.355469 34.269531 217.402344 34.480469 C 217.601562 35.449219 217.777344 36.285156 217.933594 36.777344 C 220.394531 44.535156 222.859375 52.8125 223.574219 61.261719 C 224.429688 71.363281 224.835938 80.179688 224.820312 88.214844 C 224.816406 90.15625 224.820312 92.125 224.820312 94.03125 C 224.820312 95 224.820312 95.972656 224.820312 96.941406 C 224.820312 97.636719 224.886719 98.445312 224.953125 99.304688 C 225.003906 99.941406 225.058594 100.601562 225.085938 101.261719 C 225.507812 101.5 225.894531 101.804688 226.25 102.082031 C 226.652344 102.394531 227.035156 102.691406 227.335938 102.800781 C 228.953125 103.386719 230.292969 102.808594 231.84375 102.140625 C 232.265625 101.960938 232.703125 101.773438 233.160156 101.601562 C 238.03125 99.789062 242.351562 101.089844 246.359375 102.574219 C 252.058594 104.6875 258.074219 104.214844 263.886719 103.757812 C 269.207031 103.339844 274.707031 102.90625 280.070312 104.394531 C 281.5 104.792969 282.816406 105.476562 284.09375 106.140625 C 285.53125 106.886719 286.886719 107.589844 288.371094 107.902344 C 289.855469 108.21875 291.316406 108.039062 292.867188 107.855469 C 293.457031 107.78125 294.066406 107.710938 294.679688 107.664062 L 295.214844 107.625 C 297.789062 107.429688 301.320312 107.164062 304.734375 107.449219 C 308.945312 107.796875 311.855469 108.882812 313.632812 110.761719 C 313.851562 110.996094 313.898438 111.253906 313.773438 111.546875 C 313.648438 111.839844 313.425781 111.984375 313.105469 111.984375 Z M 215.980469 101.792969 C 216.050781 102.0625 216.132812 102.324219 216.214844 102.582031 L 216.21875 102.589844 C 216.519531 103.496094 216.933594 104.738281 217.625 105.035156 C 217.90625 105.15625 218.261719 105.113281 218.707031 104.90625 C 219.023438 104.761719 219.199219 104.554688 219.25 104.28125 C 219.335938 103.824219 219.066406 103.214844 218.550781 102.683594 C 217.988281 102.101562 217.039062 101.859375 215.980469 101.792969 Z M 223.632812 102.289062 C 223.519531 102.289062 223.410156 102.3125 223.304688 102.355469 C 222.757812 102.574219 222.617188 103.351562 222.761719 104.003906 C 222.84375 104.363281 223.027344 104.757812 223.316406 104.945312 C 223.578125 104.191406 223.664062 103.269531 223.664062 102.289062 Z M 202.9375 1.515625 C 202.660156 1.515625 202.40625 1.519531 202.183594 1.523438 C 196.511719 1.640625 190.898438 4.257812 186.375 8.898438 C 182.710938 12.660156 176.617188 22.636719 178.03125 28.300781 C 178.5 30.175781 179.738281 31.410156 181.8125 32.074219 C 182.441406 32.273438 188.125 34.0625 194.277344 35.28125 C 201.550781 36.722656 205.0625 36.492188 206.75 35.902344 C 206.574219 35.476562 206.382812 35.046875 206.191406 34.605469 C 204.992188 31.855469 203.753906 29.011719 203.515625 26.085938 C 203.359375 24.164062 203.429688 22.796875 204.25 21.90625 C 205.070312 21.019531 206.441406 20.84375 208.394531 20.84375 L 208.464844 20.84375 C 208.632812 20.84375 208.871094 20.828125 209.125 20.808594 C 210.3125 20.726562 211.9375 20.613281 212.613281 21.621094 C 213.066406 22.296875 213.15625 22.894531 212.878906 23.402344 C 212.640625 23.84375 212.179688 24.082031 211.632812 24.207031 C 212.171875 24.214844 212.675781 24.351562 213.136719 24.625 C 215.171875 25.800781 216.21875 29.207031 216.9375 32.34375 C 218.410156 32.507812 220.046875 32.347656 221.667969 31.84375 C 224.753906 30.875 229.460938 27.957031 229.898438 25.203125 C 230.089844 24.003906 229.457031 22.902344 227.96875 21.84375 C 223.675781 18.78125 216.738281 19.03125 211.167969 19.230469 C 209.941406 19.277344 208.785156 19.316406 207.699219 19.328125 C 201.261719 19.375 195.933594 21.714844 190.296875 24.191406 C 187.640625 25.359375 184.894531 26.566406 181.988281 27.535156 C 181.828125 27.589844 181.671875 27.585938 181.515625 27.53125 C 181.359375 27.472656 181.234375 27.375 181.144531 27.234375 C 181.058594 27.09375 181.019531 26.941406 181.039062 26.773438 C 181.054688 26.609375 181.121094 26.464844 181.238281 26.34375 C 182.230469 25.316406 182.960938 24.234375 183.664062 23.1875 C 184.855469 21.410156 186.089844 19.574219 188.558594 18.132812 C 193.34375 15.34375 197.746094 15.355469 202.84375 15.367188 L 203.839844 15.367188 C 205.929688 15.367188 208.066406 15.335938 210.128906 15.304688 C 214.609375 15.238281 219.238281 15.167969 223.765625 15.414062 C 227.109375 15.597656 229.027344 16.550781 230.988281 18.046875 C 229.960938 15.589844 228.902344 13.261719 227.257812 11.128906 C 220.515625 2.394531 207.761719 1.515625 202.9375 1.515625 Z M 208.402344 22.292969 C 206.601562 22.292969 205.703125 22.464844 205.3125 22.890625 C 204.921875 23.316406 204.816406 24.207031 204.957031 25.96875 C 205.175781 28.65625 206.367188 31.386719 207.515625 34.027344 C 207.675781 34.394531 207.835938 34.765625 207.996094 35.136719 C 208.164062 34.9375 208.273438 34.710938 208.324219 34.453125 C 208.5625 33.261719 207.710938 31.523438 206.882812 29.847656 C 205.871094 27.785156 204.914062 25.84375 205.699219 24.390625 C 206.148438 23.5625 207.058594 23.082031 208.484375 22.90625 C 208.726562 22.878906 209.050781 22.882812 209.457031 22.890625 C 209.898438 22.898438 211.191406 22.917969 211.570312 22.722656 C 211.527344 22.617188 211.476562 22.519531 211.410156 22.425781 C 211.40625 22.417969 211.304688 22.277344 210.738281 22.226562 C 210.269531 22.183594 209.714844 22.222656 209.226562 22.253906 C 208.929688 22.277344 208.675781 22.296875 208.457031 22.292969 Z M 211.390625 25.667969 C 211.164062 27.882812 211.757812 29.660156 213.128906 30.835938 C 213.742188 31.363281 214.507812 31.761719 215.375 32.027344 C 214.742188 29.457031 213.824219 26.695312 212.414062 25.882812 C 212.097656 25.691406 211.753906 25.621094 211.390625 25.667969 Z M 211.390625 25.667969 " fill-opacity="1" fill-rule="nonzero"/></g></svg>