<svg xmlns="http://www.w3.org/2000/svg" xmlns:xlink="http://www.w3.org/1999/xlink" width="600" zoomAndPan="magnify" viewBox="0 0 450 112.499997" height="150" preserveAspectRatio="xMidYMid meet" version="1.0"><defs><g/><clipPath id="dabade7323"><path d="M 58.460938 17.125 L 391.480469 17.125 L 391.480469 108 L 58.460938 108 Z M 58.460938 17.125 " clip-rule="nonzero"/></clipPath></defs><g clip-path="url(#dabade7323)"><path fill="#d9d9d9" d="M 200.445312 17.671875 C 185.15625 18.902344 176.921875 27.632812 182.949219 36.214844 C 185.617188 40.015625 189.324219 41.617188 198.351562 42.875 C 199.84375 43.082031 201.398438 43.335938 201.804688 43.441406 C 204.230469 44.066406 206.171875 46.054688 207.402344 49.179688 C 207.941406 50.542969 208.601562 55.925781 209.867188 69.238281 C 210.234375 73.085938 210.648438 77.105469 210.789062 78.171875 C 211.316406 82.144531 210.492188 86.824219 208.695312 90.078125 C 205.480469 95.898438 196.976562 101.488281 189.3125 102.824219 C 178.175781 104.765625 160.25 99.730469 154.160156 92.949219 C 153.191406 91.867188 153.214844 91.917969 153.429688 91.308594 C 153.671875 90.621094 155.226562 86.214844 155.878906 84.367188 C 156.167969 83.558594 156.648438 82.164062 156.953125 81.277344 C 157.257812 80.386719 157.6875 79.144531 157.90625 78.515625 C 160.179688 72.019531 160.242188 70.871094 158.421875 68.960938 C 157.167969 67.640625 155.648438 67.257812 154.066406 67.867188 C 154.003906 67.890625 153.882812 67.789062 153.800781 67.644531 L 153.644531 67.382812 L 154.371094 67.207031 C 154.773438 67.109375 155.609375 66.816406 156.230469 66.554688 L 157.363281 66.078125 L 157.851562 66.324219 C 159.695312 67.257812 160.335938 66.269531 160.675781 61.976562 C 161.289062 54.207031 159.945312 52.4375 154.007812 53.195312 C 151.769531 53.480469 150.910156 53.335938 152.335938 52.914062 C 153.839844 52.464844 155.15625 52.507812 158.707031 53.113281 C 165.886719 54.339844 168.738281 54.132812 170.851562 52.230469 C 173.746094 49.628906 172.757812 45.261719 167.46875 37.308594 C 165.574219 34.457031 165.015625 33.46875 162.816406 29.078125 C 158.796875 21.042969 156.875 18.976562 154.402344 20.039062 C 152.839844 20.710938 148.363281 28.125 145.585938 34.640625 C 141.167969 45.007812 141.648438 49.664062 147.484375 53.082031 C 150.429688 54.804688 151.21875 55.863281 150.828125 57.5625 C 150.671875 58.230469 150.511719 58.628906 149.554688 60.71875 C 147.910156 64.328125 147.90625 66.878906 149.546875 67.207031 C 149.871094 67.273438 149.867188 67.246094 149.632812 68.117188 C 148.832031 71.074219 148.292969 80.628906 148.722656 84.292969 C 149.050781 87.109375 149.753906 89.246094 151.050781 91.402344 C 151.628906 92.363281 151.628906 92.101562 151.046875 93.515625 C 149.503906 97.273438 147.394531 100.128906 145.441406 101.097656 C 142.160156 102.730469 136.621094 101.917969 134.347656 99.46875 L 133.742188 98.816406 L 134.667969 97.890625 C 137.238281 95.3125 138.347656 92.6875 138.339844 89.222656 C 138.335938 87.386719 137.902344 85.019531 137.527344 84.789062 C 137.472656 84.753906 137.574219 84.578125 137.765625 84.382812 C 137.949219 84.191406 138.308594 83.757812 138.558594 83.421875 C 138.898438 82.964844 139.148438 82.738281 139.527344 82.550781 C 140.675781 81.976562 140.765625 81.445312 140.039062 79.609375 C 138.628906 76.054688 137.546875 74.949219 135.480469 74.949219 C 134.8125 74.949219 134.371094 75.042969 131.355469 75.851562 C 130.859375 75.984375 130.152344 76.117188 129.785156 76.152344 L 129.121094 76.210938 L 129.5 75.808594 C 130.175781 75.105469 131.128906 74.675781 132.832031 74.3125 C 133.476562 74.171875 134.195312 74.148438 137.542969 74.140625 L 141.492188 74.132812 L 142.492188 73.867188 C 145.363281 73.097656 146.570312 71.847656 146.816406 69.378906 C 147.113281 66.386719 144.421875 61.917969 138.285156 55.203125 C 134.34375 50.886719 132.777344 49.828125 130.503906 49.9375 C 128.109375 50.050781 127.429688 51.035156 125.742188 56.820312 C 124.730469 60.285156 123.957031 62.082031 122.441406 64.480469 C 122.027344 65.132812 121.347656 66.203125 120.9375 66.859375 C 119.175781 69.648438 118.660156 70.9375 118.65625 72.574219 C 118.648438 74.683594 119.039062 74.957031 123.601562 76.050781 C 127.371094 76.953125 130.105469 78.3125 130.410156 79.433594 C 130.527344 79.875 130.394531 80.691406 129.882812 82.679688 C 129.042969 85.949219 129.207031 86.746094 130.738281 86.746094 L 131.265625 86.746094 L 131.117188 87.039062 C 130.164062 88.882812 130.320312 94.355469 131.417969 97.40625 L 131.738281 98.3125 L 131.53125 98.484375 C 130.710938 99.160156 128.917969 99.957031 127.328125 100.355469 C 123.722656 101.257812 120.050781 101.234375 112.324219 100.253906 C 99.464844 98.621094 98.734375 98.558594 91.75 98.480469 C 83.816406 98.398438 79.535156 98.710938 63.550781 100.546875 C 61.300781 100.808594 59.234375 101.042969 58.960938 101.074219 L 58.460938 101.132812 L 58.460938 102.480469 L 59.292969 102.417969 C 59.75 102.386719 61.601562 102.1875 63.410156 101.980469 C 87.820312 99.144531 92.597656 99.109375 111.527344 101.589844 C 119.699219 102.664062 123.796875 102.699219 127.75 101.738281 C 129.320312 101.351562 131.167969 100.59375 132.125 99.9375 L 132.449219 99.714844 L 133.199219 100.511719 C 136.121094 103.636719 143.433594 104.351562 147.136719 101.875 C 148.894531 100.703125 150.796875 97.949219 152.246094 94.492188 L 152.609375 93.625 L 153.523438 94.546875 C 160.566406 101.65625 179.566406 106.433594 190.964844 103.960938 C 195.667969 102.9375 200.117188 100.699219 204.6875 97.050781 C 208.363281 94.121094 210.695312 90.5625 211.628906 86.460938 C 211.71875 86.070312 211.84375 85.554688 211.90625 85.320312 L 212.019531 84.894531 L 212.148438 85.414062 C 213.484375 90.972656 217.253906 97.625 219.71875 98.777344 C 222.804688 100.222656 225.050781 97.867188 226.46875 91.695312 C 226.558594 91.304688 226.652344 90.921875 226.675781 90.84375 C 226.703125 90.761719 226.886719 91.011719 227.125 91.445312 C 228.621094 94.199219 231.367188 96.507812 235.964844 98.882812 C 244.386719 103.230469 252.28125 104.238281 269.488281 103.15625 C 286.882812 102.066406 292.929688 101.125 298.84375 98.589844 C 299.496094 98.308594 300.035156 98.089844 300.042969 98.101562 C 300.050781 98.113281 300.28125 98.464844 300.558594 98.882812 C 304.890625 105.429688 315.601562 107.648438 330.824219 105.152344 C 333.554688 104.707031 334.40625 104.539062 340.957031 103.160156 C 350.839844 101.085938 354.386719 100.546875 359.371094 100.367188 C 368.59375 100.03125 378.097656 101.988281 390.898438 106.859375 L 391.539062 107.105469 L 391.539062 105.539062 L 390.277344 105.074219 C 387.867188 104.191406 387.199219 103.953125 385.542969 103.402344 C 369.3125 97.996094 359.917969 97.609375 341.429688 101.59375 C 321.222656 105.953125 312.132812 105.875 305.265625 101.296875 C 303.703125 100.257812 301.058594 97.480469 301.492188 97.335938 C 301.554688 97.3125 302.054688 97.023438 302.609375 96.695312 C 303.527344 96.140625 303.617188 96.109375 303.703125 96.269531 C 304.230469 97.253906 306.546875 98.1875 308.507812 98.203125 C 315.222656 98.265625 320.175781 91.203125 318.199219 84.378906 C 317.921875 83.421875 317.070312 81.609375 316.035156 79.773438 C 313.664062 75.574219 313.367188 73.78125 313.828125 66.492188 C 314.144531 61.449219 313.957031 58.355469 313.230469 56.660156 L 313.042969 56.21875 L 313.488281 56.054688 C 314.257812 55.765625 317.019531 54.339844 318.402344 53.511719 C 335.367188 43.394531 340.839844 28.445312 329.632812 22.820312 C 322.871094 19.429688 315.085938 19.296875 306.605469 22.4375 C 302.558594 23.933594 301.070312 24.332031 298.855469 24.511719 C 297.535156 24.617188 297.390625 24.613281 294.015625 24.355469 C 286.367188 23.777344 285.21875 24.285156 278.71875 31.117188 C 277.65625 32.238281 276.160156 33.660156 274.769531 34.871094 C 270.664062 38.453125 269.660156 39.460938 268.476562 41.191406 C 264.964844 46.320312 265.996094 51.84375 271.113281 55.316406 C 275.6875 58.421875 281.039062 59.710938 290.757812 60.054688 C 294.738281 60.195312 295.433594 60.25 296.242188 60.476562 C 296.445312 60.53125 296.734375 60.578125 296.882812 60.578125 C 297.148438 60.578125 297.15625 60.585938 297.097656 60.980469 C 296.679688 63.769531 296.742188 66.871094 297.324219 72.332031 C 297.855469 77.300781 297.90625 78.207031 297.992188 84.75 C 298.078125 91.019531 298.117188 91.746094 298.46875 93.625 C 298.636719 94.5 299.179688 96.335938 299.363281 96.628906 C 299.4375 96.75 297.390625 97.660156 295.828125 98.199219 C 290.785156 99.949219 287.265625 100.445312 271.820312 101.597656 C 255.296875 102.824219 246.738281 102.101562 239.371094 98.859375 C 231.132812 95.230469 226.894531 90.769531 227.28125 86.132812 C 227.40625 84.582031 227.542969 81.832031 227.714844 77.296875 C 227.832031 74.175781 227.914062 73.027344 228.1875 70.824219 C 229.019531 64.015625 229.394531 59.550781 229.566406 54.25 C 229.667969 51.144531 229.703125 50.789062 230.140625 48.347656 C 231.683594 39.714844 232.59375 38.847656 238.132812 40.726562 C 245.570312 43.253906 250.542969 42.976562 254.039062 39.839844 C 258.011719 36.277344 255.28125 27.140625 248.980469 22.894531 C 244.539062 19.898438 240.234375 19.332031 230.898438 20.511719 C 224.386719 21.332031 222.242188 21.175781 215.863281 19.421875 C 209.714844 17.726562 205.574219 17.257812 200.445312 17.671875 M 207.472656 19.140625 C 209.871094 19.394531 211.785156 19.796875 215.808594 20.902344 C 221.769531 22.542969 224.644531 22.726562 231.28125 21.898438 C 237.601562 21.113281 240.28125 21.109375 243.28125 21.890625 C 245.910156 22.574219 248.964844 24.429688 250.621094 26.351562 L 251.058594 26.859375 L 250.617188 26.816406 C 249.902344 26.75 249.25 27.058594 248.214844 27.945312 C 244.417969 31.199219 241.578125 32.265625 236.703125 32.261719 C 233.457031 32.257812 232.445312 31.972656 228.164062 29.855469 C 220.679688 26.160156 217.085938 26.046875 208.011719 29.222656 C 201.191406 31.613281 199.164062 32.238281 196.878906 32.648438 C 191.488281 33.617188 186.949219 31.699219 184.90625 27.585938 C 184.460938 26.691406 184.386719 26.597656 184.105469 26.546875 C 183.699219 26.46875 183.765625 26.351562 184.777344 25.292969 C 188.433594 21.480469 194.355469 19.367188 202.539062 18.953125 C 203.601562 18.898438 206.050781 18.992188 207.472656 19.140625 M 156.386719 21.753906 C 157.800781 22.871094 158.964844 24.71875 161.691406 30.171875 C 163.902344 34.59375 164.28125 35.261719 166.472656 38.59375 C 171.230469 45.832031 172.054688 48.890625 169.828125 51.035156 C 168.082031 52.710938 165.867188 52.875 159.621094 51.796875 C 154.542969 50.921875 151.0625 51.171875 150.09375 52.484375 L 149.898438 52.75 L 148.785156 52.085938 C 145.523438 50.136719 144.414062 48.726562 144.105469 46.152344 C 143.617188 42.039062 147.648438 32.089844 153.203125 23.703125 C 154.957031 21.058594 155.269531 20.867188 156.386719 21.753906 M 321.449219 21.839844 C 327.429688 22.792969 331.671875 25.085938 333.246094 28.21875 L 333.566406 28.851562 L 332.886719 28.722656 C 332.511719 28.648438 331.960938 28.523438 331.664062 28.4375 C 331.367188 28.359375 331.042969 28.320312 330.949219 28.359375 C 330.851562 28.398438 330.28125 28.488281 329.675781 28.558594 C 327.335938 28.839844 326.226562 29.378906 323.976562 31.339844 C 320.085938 34.730469 316.21875 35.332031 309.601562 33.566406 C 309.210938 33.464844 308.757812 33.332031 308.601562 33.28125 C 308.296875 33.175781 306.078125 32.660156 304.273438 32.273438 C 298.070312 30.941406 291.824219 31.316406 286 33.367188 C 285.242188 33.632812 284.449219 33.894531 284.242188 33.945312 C 284.035156 33.996094 283.839844 34.074219 283.8125 34.117188 C 283.785156 34.164062 283.375 34.371094 282.894531 34.582031 C 281.65625 35.128906 280.722656 35.605469 278.25 36.957031 C 274.789062 38.847656 272.71875 39.75 271.882812 39.730469 C 271.644531 39.726562 271.816406 39.558594 274.296875 37.382812 C 275.160156 36.625 276.476562 35.464844 277.230469 34.800781 C 277.976562 34.140625 279.628906 32.484375 280.898438 31.125 C 285.910156 25.753906 287.050781 25.261719 293.457031 25.742188 C 299.6875 26.210938 301.121094 26.003906 307.191406 23.761719 C 310.238281 22.636719 312.667969 21.992188 314.738281 21.757812 C 315.238281 21.699219 315.773438 21.636719 315.929688 21.617188 C 316.710938 21.507812 320.269531 21.652344 321.449219 21.839844 M 183.132812 31.363281 C 183.382812 32.644531 183.882812 34.136719 184.414062 35.203125 C 184.890625 36.160156 184.785156 36.136719 184.097656 35.140625 C 182.546875 32.886719 182.058594 30.625 182.679688 28.554688 C 182.789062 28.191406 182.796875 28.21875 182.863281 29.269531 C 182.902344 29.871094 183.023438 30.8125 183.132812 31.363281 M 250.808594 28.460938 C 252.296875 29.46875 253.90625 34.054688 253.558594 36.292969 C 252.871094 40.722656 247.722656 41.875 239.941406 39.335938 C 238.523438 38.875 237.25 38.375 234.183594 37.074219 C 228.058594 34.472656 225.800781 33.890625 221.859375 33.894531 C 217.496094 33.894531 215.535156 34.46875 209.105469 37.625 C 203.429688 40.410156 200.835938 41.058594 196.78125 40.695312 C 190.054688 40.09375 185.550781 36.507812 184.503906 30.933594 C 184.292969 29.8125 184.335938 29.734375 184.824219 30.359375 C 185.882812 31.722656 187.71875 32.953125 189.71875 33.644531 C 193.570312 34.96875 197.886719 34.398438 205.871094 31.507812 C 217.085938 27.449219 219.726562 27.386719 227.09375 31.003906 C 231.859375 33.339844 233.09375 33.683594 236.703125 33.6875 C 241.667969 33.691406 245.25 32.472656 248.601562 29.648438 C 250.515625 28.03125 250.328125 28.132812 250.808594 28.460938 M 329.660156 30.148438 C 329.582031 30.265625 328.925781 31.328125 328.203125 32.503906 C 322.695312 41.464844 318.585938 46.949219 313.773438 51.757812 L 311.597656 53.933594 L 311.148438 53.558594 C 310.46875 53 309.839844 52.59375 309.3125 52.375 C 308.710938 52.125 308.691406 52.199219 309.683594 50.886719 C 312.613281 47.007812 314.90625 43.230469 317.40625 38.164062 L 318.625 35.691406 L 319.351562 35.527344 C 321.105469 35.132812 323.089844 34.09375 324.71875 32.714844 C 326.933594 30.835938 327.574219 30.429688 328.851562 30.117188 C 329.796875 29.886719 329.828125 29.886719 329.660156 30.148438 M 332.707031 30.125 C 333.144531 30.230469 333.601562 30.316406 333.722656 30.316406 C 334.121094 30.316406 334.167969 32.167969 333.8125 33.882812 C 332.4375 40.542969 324.890625 48.488281 314.929688 53.75 C 313.070312 54.734375 313.070312 54.722656 314.714844 53.082031 C 319.835938 47.96875 324.917969 41.039062 330.824219 31.101562 C 331.609375 29.777344 331.5 29.835938 332.707031 30.125 M 298.15625 34.863281 C 298.429688 35.945312 299.214844 38.976562 299.902344 41.59375 C 300.589844 44.210938 301.503906 47.699219 301.933594 49.347656 L 302.71875 52.347656 L 302.175781 52.621094 L 301.632812 52.898438 L 300.882812 52.394531 C 294.578125 48.167969 288.308594 41.492188 285.75 36.273438 L 285.234375 35.222656 L 285.460938 35.105469 C 287.433594 34.074219 293.136719 32.929688 296.46875 32.898438 L 297.65625 32.890625 L 298.15625 34.863281 M 301.417969 33.226562 C 303.15625 33.480469 307.003906 34.308594 307.300781 34.492188 C 307.476562 34.597656 306.136719 47.304688 305.648438 50.1875 C 305.375 51.804688 305.484375 51.613281 304.753906 51.742188 C 304.007812 51.871094 304.121094 52.074219 303.417969 49.347656 C 302.375 45.289062 299.21875 33.261719 299.152344 33.085938 C 299.09375 32.933594 299.625 32.964844 301.417969 33.226562 M 310.085938 35.171875 C 312 35.652344 313.324219 35.847656 315.144531 35.902344 C 316.074219 35.933594 316.835938 35.972656 316.835938 35.992188 C 316.835938 36.085938 315.113281 39.445312 314.390625 40.761719 C 311.675781 45.710938 306.460938 53.167969 306.875 51.511719 C 307.097656 50.613281 307.679688 45.691406 308.363281 38.929688 C 308.730469 35.25 308.78125 34.882812 308.898438 34.882812 C 308.925781 34.882812 309.457031 35.011719 310.085938 35.171875 M 225.15625 35.539062 C 227.144531 35.914062 229.140625 36.558594 232.007812 37.753906 L 233.660156 38.441406 L 233.160156 38.597656 C 231.4375 39.136719 230.464844 40.515625 229.703125 43.511719 C 229.519531 44.234375 229.375 44.339844 229.375 43.75 C 229.375 43.375 229.15625 42.0625 229.015625 41.589844 C 228.644531 40.367188 227.914062 39.953125 226.988281 40.4375 L 226.738281 40.566406 L 226.6875 39.511719 C 226.53125 36.167969 223.992188 36.390625 222.816406 39.84375 C 222.515625 40.730469 222.050781 42.710938 222.050781 43.101562 C 222.050781 43.671875 221.886719 43.269531 221.589844 41.949219 C 220.867188 38.777344 220.054688 36.339844 219.53125 35.785156 C 219.183594 35.417969 219.175781 35.429688 219.910156 35.324219 C 220.722656 35.203125 224.132812 35.34375 225.15625 35.539062 M 217.578125 35.761719 C 217.578125 35.777344 217.492188 36.011719 217.386719 36.289062 C 216.925781 37.5 216.890625 38.003906 216.839844 44.019531 L 216.792969 49.679688 L 216.386719 48.152344 C 215.449219 44.648438 213.859375 39.691406 213.402344 38.835938 C 213.113281 38.292969 212.640625 37.929688 212.210938 37.921875 C 211.929688 37.917969 211.945312 37.90625 212.441406 37.648438 C 213.808594 36.941406 217.578125 35.558594 217.578125 35.761719 M 284.003906 35.960938 C 284.003906 36.15625 284.996094 38.128906 285.566406 39.070312 C 288.480469 43.867188 293.621094 49.160156 299.179688 53.085938 C 299.703125 53.457031 300.171875 53.792969 300.214844 53.832031 C 300.390625 53.980469 299.507812 54.867188 299.238281 54.808594 C 295.082031 53.886719 288.839844 50.808594 284.648438 47.617188 C 282.558594 46.023438 276.292969 40.15625 276.292969 39.789062 C 276.292969 39.730469 276.539062 39.5625 276.839844 39.414062 C 277.140625 39.269531 278.371094 38.609375 279.578125 37.949219 C 282.980469 36.085938 284 35.628906 284.003906 35.960938 M 218.886719 37.714844 C 219.585938 39.378906 220.6875 44.113281 221.25 47.875 L 221.503906 49.585938 L 221.394531 53.628906 C 221.332031 55.855469 221.261719 59.710938 221.234375 62.195312 C 221.210938 64.679688 221.160156 67.25 221.125 67.90625 L 221.0625 69.09375 L 220.9375 68.523438 C 220.871094 68.210938 220.257812 65.351562 219.574219 62.175781 L 218.335938 56.398438 L 218.230469 50.089844 C 218.128906 43.8125 218.164062 40.230469 218.34375 38.691406 C 218.53125 37.074219 218.582031 36.988281 218.886719 37.714844 M 211.101562 38.53125 C 210.617188 39.351562 210.5 40.183594 210.492188 42.84375 L 210.488281 45.335938 L 210.03125 44.082031 C 209.203125 41.8125 208.34375 40.21875 207.863281 40.066406 C 207.71875 40.023438 210.664062 38.425781 211.269531 38.222656 C 211.28125 38.214844 211.203125 38.355469 211.101562 38.53125 M 225.328125 41.402344 C 225.320312 43.578125 225.308594 43.726562 225.070312 44.542969 C 224.597656 46.160156 223.742188 50.535156 223.515625 52.511719 C 223.425781 53.269531 223.324219 53.195312 223.246094 52.320312 C 223.210938 51.917969 223.121094 51.121094 223.046875 50.554688 C 222.707031 47.945312 223.460938 41.792969 224.339844 39.996094 C 225.203125 38.238281 225.335938 38.425781 225.328125 41.402344 M 212.964844 41.78125 C 214.273438 45.695312 215.324219 49.539062 216.375 54.25 L 216.988281 57.007812 L 217.140625 63.8125 C 217.226562 67.554688 217.316406 71.023438 217.339844 71.523438 C 217.375 72.261719 217.367188 72.367188 217.28125 72.09375 C 214.875 64.246094 213.421875 58.429688 212.78125 54.058594 C 211.925781 48.222656 211.601562 41.21875 212.128906 39.851562 C 212.203125 39.65625 212.417969 40.15625 212.964844 41.78125 M 277.304688 43.054688 C 284.195312 49.941406 288.710938 52.851562 296.574219 55.480469 L 298.628906 56.167969 L 298.453125 56.515625 C 298.238281 56.929688 298.320312 56.921875 296.941406 56.636719 C 290.046875 55.203125 281.484375 51.371094 271.65625 45.328125 C 270.125 44.386719 268.871094 43.570312 268.871094 43.519531 C 268.871094 43.382812 269.191406 42.859375 269.804688 41.996094 L 270.328125 41.257812 L 270.832031 41.257812 C 271.832031 41.257812 274.425781 40.6875 274.640625 40.417969 C 274.644531 40.410156 275.84375 41.597656 277.304688 43.054688 M 206.277344 41.242188 C 206.234375 41.816406 206.453125 44.019531 206.605469 44.542969 C 206.636719 44.65625 206.371094 44.460938 205.941406 44.054688 C 204.902344 43.066406 202.886719 42.019531 202.027344 42.019531 C 201.597656 42.019531 201.976562 41.851562 202.753906 41.695312 C 203.617188 41.523438 205.710938 40.886719 206.039062 40.695312 C 206.3125 40.535156 206.324219 40.566406 206.277344 41.242188 M 227.804688 42.789062 C 228.292969 45.230469 228.367188 49.980469 227.964844 53.394531 C 227.332031 58.726562 226.902344 63.929688 226.664062 69.09375 C 226.570312 71.164062 226.386719 73.597656 226.183594 75.519531 C 225.675781 80.332031 225.664062 80.46875 225.601562 82.945312 C 225.5625 84.460938 225.582031 85.644531 225.652344 86.332031 C 226.023438 89.886719 223.753906 96.761719 221.917969 97.632812 C 219.355469 98.847656 214.632812 90.726562 212.851562 82.039062 L 212.5 80.324219 L 212.523438 76.945312 C 212.589844 66.085938 211.457031 56.445312 209.394531 50.347656 C 208.949219 49.023438 208.019531 44.707031 207.824219 43.019531 L 207.765625 42.542969 L 207.921875 42.8125 C 209.285156 45.203125 211.269531 53.425781 213.246094 64.90625 C 214.199219 70.441406 215.429688 77.855469 215.863281 80.660156 C 217.46875 91.09375 218.609375 95.820312 219.601562 96.164062 C 220.394531 96.441406 220.902344 96.15625 221.148438 95.300781 L 221.320312 94.691406 L 221.660156 94.71875 C 222.316406 94.773438 222.71875 94.339844 222.863281 93.429688 C 222.902344 93.179688 222.996094 92.988281 223.105469 92.929688 C 223.59375 92.667969 223.894531 90.683594 224.234375 85.464844 C 224.28125 84.730469 224.429688 83.46875 224.5625 82.65625 C 225.167969 78.921875 225.539062 74.296875 225.757812 67.761719 C 225.898438 63.691406 226.019531 60.605469 226.238281 55.484375 C 226.34375 53.078125 226.492188 49.523438 226.566406 47.589844 C 226.714844 43.796875 226.730469 43.679688 227.324219 42.507812 C 227.632812 41.902344 227.625 41.898438 227.804688 42.789062 M 272.773438 47.765625 C 281.597656 53.078125 291.328125 57.226562 297.0625 58.117188 L 297.777344 58.230469 L 297.636719 58.644531 C 297.457031 59.167969 297.25 59.226562 296.292969 59.011719 C 295.554688 58.847656 294.277344 58.769531 289.140625 58.582031 C 277.394531 58.152344 269.398438 54.429688 267.96875 48.730469 C 267.703125 47.667969 267.8125 45.621094 268.167969 45.046875 C 268.191406 45.007812 268.691406 45.277344 269.277344 45.644531 C 269.863281 46.007812 271.4375 46.964844 272.773438 47.765625 M 131.621094 51.492188 C 134.035156 52.207031 142.417969 61.667969 144.671875 66.222656 C 146.875 70.679688 144.128906 73.1875 137.515625 72.753906 C 132.453125 72.421875 128.390625 73.613281 127.722656 75.625 C 127.699219 75.695312 127.328125 75.617188 126.59375 75.378906 C 125.996094 75.183594 124.542969 74.792969 123.371094 74.503906 C 118.996094 73.4375 118.9375 72.851562 122.601562 67.097656 C 125.261719 62.917969 125.828125 61.6875 127.074219 57.417969 C 128.722656 51.78125 129.441406 50.84375 131.621094 51.492188 M 307.371094 53.238281 C 309.425781 53.769531 311.328125 55.574219 312.019531 57.636719 C 312.617188 59.429688 312.71875 61.863281 312.410156 66.953125 C 311.964844 74.242188 312.371094 76.445312 315.019531 81.078125 C 316.808594 84.203125 317.285156 85.695312 317.1875 87.84375 C 316.890625 94.308594 309.292969 99.285156 305.3125 95.617188 L 304.824219 95.171875 L 305.539062 94.4375 C 309.125 90.746094 308.910156 85.984375 305.203125 87.125 C 302.78125 87.875 301.496094 91.167969 302.488281 94.074219 C 302.621094 94.46875 302.726562 94.796875 302.71875 94.804688 C 302.539062 94.960938 300.867188 95.980469 300.785156 95.980469 C 300.535156 95.980469 299.921875 93.878906 299.652344 92.105469 C 299.53125 91.296875 299.480469 89.824219 299.417969 85.226562 C 299.320312 78.175781 299.253906 76.980469 298.617188 71.046875 C 297.953125 64.835938 298.160156 60.789062 299.265625 58.4375 C 299.390625 58.175781 299.570312 57.769531 299.667969 57.535156 C 300.941406 54.488281 304.511719 52.496094 307.371094 53.238281 M 224.769531 57.152344 C 224.683594 59.0625 224.554688 62.378906 224.476562 64.519531 C 224.34375 68.183594 224.238281 69.570312 224.238281 67.65625 C 224.238281 67.1875 224.175781 65.558594 224.097656 64.039062 C 223.9375 60.976562 223.953125 60.707031 224.589844 55.34375 C 224.925781 52.511719 224.957031 52.828125 224.769531 57.152344 M 157.859375 54.652344 C 159.21875 55.351562 159.664062 57.769531 159.25 62.195312 C 159.011719 64.734375 158.878906 65.144531 158.378906 64.886719 C 157.722656 64.546875 156.875 64.648438 155.605469 65.210938 C 154.066406 65.894531 153.191406 66.074219 152.191406 65.910156 C 151.730469 65.835938 151.175781 65.8125 150.785156 65.851562 C 149.300781 65.996094 149.359375 64.710938 151 61.121094 C 152.375 58.113281 152.632812 56.800781 152.121094 55.394531 C 152.003906 55.082031 151.914062 54.816406 151.914062 54.800781 C 151.914062 54.785156 152.117188 54.773438 152.363281 54.773438 C 152.789062 54.769531 153.703125 54.675781 155.148438 54.488281 C 156.175781 54.351562 157.421875 54.429688 157.859375 54.652344 M 219.476562 68.667969 C 220.4375 73.402344 221.097656 77.839844 221.101562 79.589844 C 221.101562 80.640625 220.824219 85.910156 220.75 86.273438 C 220.71875 86.417969 220.523438 85.644531 220.242188 84.273438 C 219.992188 83.042969 219.71875 81.75 219.636719 81.398438 C 219.277344 79.890625 218.800781 73.894531 218.675781 69.285156 C 218.507812 63.382812 218.421875 63.453125 219.476562 68.667969 M 152.035156 67.738281 C 152.160156 67.910156 152.378906 68.25 152.519531 68.5 C 152.964844 69.28125 153.175781 69.320312 155.5 69.085938 C 156.230469 69.011719 156.492188 69.152344 157.371094 70.097656 C 158.820312 71.667969 158.902344 71.25 154.890625 82.796875 C 154.65625 83.480469 154.109375 85.019531 153.675781 86.226562 C 153.246094 87.429688 152.75 88.832031 152.578125 89.339844 C 152.191406 90.496094 152.21875 90.503906 151.535156 89.105469 C 149.917969 85.785156 149.5625 81.359375 150.292969 73.617188 C 150.675781 69.582031 150.941406 68.21875 151.464844 67.644531 C 151.71875 67.363281 151.765625 67.371094 152.035156 67.738281 M 222.925781 82.238281 C 222.59375 83.804688 222.601562 77.160156 222.929688 73.234375 C 222.941406 73.105469 222.960938 74.992188 222.976562 77.433594 C 222.992188 79.875 222.96875 82.039062 222.925781 82.238281 M 216.65625 75.328125 C 217.632812 78.9375 218.082031 80.964844 218.339844 82.941406 C 218.625 85.128906 219.230469 88.722656 219.585938 90.363281 C 219.855469 91.601562 220.082031 93.945312 219.917969 93.785156 C 219.539062 93.410156 218.429688 87.785156 217.199219 79.992188 C 216.832031 77.664062 216.488281 75.5 216.4375 75.1875 C 216.246094 74.042969 216.324219 74.09375 216.65625 75.328125 M 136.296875 76.5625 C 137.050781 76.945312 137.894531 78.207031 138.640625 80.058594 L 139.054688 81.085938 L 138.605469 81.3125 C 138.019531 81.605469 137.90625 81.714844 137.25 82.574219 C 136.527344 83.519531 135.992188 83.898438 134.417969 84.582031 C 133.703125 84.894531 133.058594 85.199219 132.984375 85.257812 C 132.902344 85.328125 132.457031 85.367188 131.816406 85.367188 L 130.78125 85.367188 L 130.84375 84.941406 C 130.878906 84.703125 131.09375 83.785156 131.328125 82.894531 C 132.050781 80.121094 132 78.550781 131.15625 77.746094 L 130.878906 77.476562 L 132.042969 77.164062 C 132.6875 76.992188 133.597656 76.746094 134.070312 76.617188 C 135.128906 76.328125 135.808594 76.3125 136.296875 76.5625 M 136.339844 85.820312 C 136.644531 86.046875 136.917969 87.664062 136.914062 89.269531 C 136.910156 92.117188 136.039062 94.175781 133.890625 96.429688 C 132.863281 97.503906 132.960938 97.507812 132.605469 96.382812 C 132.0625 94.660156 131.976562 93.984375 131.976562 91.363281 C 131.976562 87.996094 132.300781 87.132812 133.578125 87.125 C 134.363281 87.125 134.898438 86.867188 135.476562 86.21875 C 135.964844 85.675781 136.070312 85.625 136.339844 85.820312 M 306.558594 88.628906 C 307.105469 89.320312 306.015625 91.742188 304.476562 93.257812 L 303.90625 93.816406 L 303.792969 93.398438 C 303.339844 91.730469 303.632812 90.359375 304.671875 89.257812 C 305.480469 88.402344 306.191406 88.164062 306.558594 88.628906 M 221.519531 91.644531 C 221.585938 91.988281 221.609375 92.269531 221.570312 92.269531 C 221.480469 92.269531 221.289062 91.507812 221.289062 91.164062 C 221.289062 90.75 221.394531 90.96875 221.519531 91.644531 " fill-opacity="1" fill-rule="evenodd"/></g><g fill="#6cf1b5" fill-opacity="1"><g transform="translate(22.135146, 70.519844)"><g><path d="M 20.328125 -17.875 C 19.742188 -18.957031 18.9375 -19.773438 17.90625 -20.328125 C 16.882812 -20.890625 15.691406 -21.171875 14.328125 -21.171875 C 12.816406 -21.171875 11.472656 -20.828125 10.296875 -20.140625 C 9.117188 -19.460938 8.203125 -18.488281 7.546875 -17.21875 C 6.890625 -15.945312 6.5625 -14.484375 6.5625 -12.828125 C 6.5625 -11.117188 6.894531 -9.628906 7.5625 -8.359375 C 8.238281 -7.085938 9.175781 -6.109375 10.375 -5.421875 C 11.570312 -4.734375 12.960938 -4.390625 14.546875 -4.390625 C 16.503906 -4.390625 18.101562 -4.910156 19.34375 -5.953125 C 20.59375 -6.992188 21.410156 -8.441406 21.796875 -10.296875 L 13 -10.296875 L 13 -14.21875 L 26.859375 -14.21875 L 26.859375 -9.75 C 26.515625 -7.96875 25.78125 -6.316406 24.65625 -4.796875 C 23.53125 -3.285156 22.082031 -2.070312 20.3125 -1.15625 C 18.539062 -0.238281 16.554688 0.21875 14.359375 0.21875 C 11.890625 0.21875 9.660156 -0.332031 7.671875 -1.4375 C 5.679688 -2.550781 4.117188 -4.097656 2.984375 -6.078125 C 1.847656 -8.054688 1.28125 -10.304688 1.28125 -12.828125 C 1.28125 -15.335938 1.847656 -17.585938 2.984375 -19.578125 C 4.117188 -21.578125 5.679688 -23.128906 7.671875 -24.234375 C 9.660156 -25.347656 11.878906 -25.90625 14.328125 -25.90625 C 17.210938 -25.90625 19.71875 -25.203125 21.84375 -23.796875 C 23.96875 -22.390625 25.429688 -20.414062 26.234375 -17.875 Z M 20.328125 -17.875 "/></g></g></g><g fill="#6cf1b5" fill-opacity="1"><g transform="translate(72.87883, 70.519844)"><g><path d="M 15.71875 0 L 10.078125 -9.96875 L 7.65625 -9.96875 L 7.65625 0 L 2.53125 0 L 2.53125 -25.578125 L 12.125 -25.578125 C 14.101562 -25.578125 15.785156 -25.226562 17.171875 -24.53125 C 18.566406 -23.832031 19.613281 -22.890625 20.3125 -21.703125 C 21.007812 -20.523438 21.359375 -19.203125 21.359375 -17.734375 C 21.359375 -16.046875 20.867188 -14.523438 19.890625 -13.171875 C 18.921875 -11.816406 17.46875 -10.882812 15.53125 -10.375 L 21.65625 0 Z M 7.65625 -13.8125 L 11.9375 -13.8125 C 13.332031 -13.8125 14.367188 -14.144531 15.046875 -14.8125 C 15.734375 -15.488281 16.078125 -16.425781 16.078125 -17.625 C 16.078125 -18.800781 15.734375 -19.710938 15.046875 -20.359375 C 14.367188 -21.003906 13.332031 -21.328125 11.9375 -21.328125 L 7.65625 -21.328125 Z M 7.65625 -13.8125 "/></g></g></g><g fill="#6cf1b5" fill-opacity="1"><g transform="translate(118.969986, 70.519844)"><g><path d="M 14.40625 0.25 C 12.007812 0.25 9.804688 -0.304688 7.796875 -1.421875 C 5.796875 -2.546875 4.207031 -4.101562 3.03125 -6.09375 C 1.863281 -8.09375 1.28125 -10.347656 1.28125 -12.859375 C 1.28125 -15.347656 1.863281 -17.585938 3.03125 -19.578125 C 4.207031 -21.578125 5.796875 -23.132812 7.796875 -24.25 C 9.804688 -25.375 12.007812 -25.9375 14.40625 -25.9375 C 16.820312 -25.9375 19.023438 -25.375 21.015625 -24.25 C 23.003906 -23.132812 24.578125 -21.578125 25.734375 -19.578125 C 26.898438 -17.585938 27.484375 -15.347656 27.484375 -12.859375 C 27.484375 -10.347656 26.898438 -8.09375 25.734375 -6.09375 C 24.578125 -4.101562 22.992188 -2.546875 20.984375 -1.421875 C 18.984375 -0.304688 16.789062 0.25 14.40625 0.25 Z M 14.40625 -4.328125 C 15.9375 -4.328125 17.285156 -4.671875 18.453125 -5.359375 C 19.628906 -6.054688 20.546875 -7.050781 21.203125 -8.34375 C 21.867188 -9.644531 22.203125 -11.148438 22.203125 -12.859375 C 22.203125 -14.566406 21.867188 -16.0625 21.203125 -17.34375 C 20.546875 -18.625 19.628906 -19.609375 18.453125 -20.296875 C 17.285156 -20.984375 15.9375 -21.328125 14.40625 -21.328125 C 12.863281 -21.328125 11.5 -20.984375 10.3125 -20.296875 C 9.125 -19.609375 8.203125 -18.625 7.546875 -17.34375 C 6.890625 -16.0625 6.5625 -14.566406 6.5625 -12.859375 C 6.5625 -11.148438 6.890625 -9.644531 7.546875 -8.34375 C 8.203125 -7.050781 9.125 -6.054688 10.3125 -5.359375 C 11.5 -4.671875 12.863281 -4.328125 14.40625 -4.328125 Z M 14.40625 -4.328125 "/></g></g></g><g fill="#6cf1b5" fill-opacity="1"><g transform="translate(170.336448, 70.519844)"><g><path d="M 36.71875 -25.578125 L 29.5625 0 L 23.515625 0 L 18.71875 -18.203125 L 13.703125 0 L 7.6875 0.03125 L 0.8125 -25.578125 L 6.296875 -25.578125 L 10.8125 -5.71875 L 16.015625 -25.578125 L 21.734375 -25.578125 L 26.640625 -5.828125 L 31.1875 -25.578125 Z M 36.71875 -25.578125 "/></g></g></g><g fill="#6cf1b5" fill-opacity="1"><g transform="translate(230.458448, 70.519844)"><g/></g></g><g fill="#6cf1b5" fill-opacity="1"><g transform="translate(261.786093, 70.519844)"><g><path d="M 15.71875 0 L 10.078125 -9.96875 L 7.65625 -9.96875 L 7.65625 0 L 2.53125 0 L 2.53125 -25.578125 L 12.125 -25.578125 C 14.101562 -25.578125 15.785156 -25.226562 17.171875 -24.53125 C 18.566406 -23.832031 19.613281 -22.890625 20.3125 -21.703125 C 21.007812 -20.523438 21.359375 -19.203125 21.359375 -17.734375 C 21.359375 -16.046875 20.867188 -14.523438 19.890625 -13.171875 C 18.921875 -11.816406 17.46875 -10.882812 15.53125 -10.375 L 21.65625 0 Z M 7.65625 -13.8125 L 11.9375 -13.8125 C 13.332031 -13.8125 14.367188 -14.144531 15.046875 -14.8125 C 15.734375 -15.488281 16.078125 -16.425781 16.078125 -17.625 C 16.078125 -18.800781 15.734375 -19.710938 15.046875 -20.359375 C 14.367188 -21.003906 13.332031 -21.328125 11.9375 -21.328125 L 7.65625 -21.328125 Z M 7.65625 -13.8125 "/></g></g></g><g fill="#6cf1b5" fill-opacity="1"><g transform="translate(307.87726, 70.519844)"><g><path d="M 7.578125 -25.578125 L 7.578125 -9.75 C 7.578125 -8.007812 8.03125 -6.679688 8.9375 -5.765625 C 9.84375 -4.847656 11.113281 -4.390625 12.75 -4.390625 C 14.414062 -4.390625 15.695312 -4.847656 16.59375 -5.765625 C 17.5 -6.679688 17.953125 -8.007812 17.953125 -9.75 L 17.953125 -25.578125 L 23.125 -25.578125 L 23.125 -9.78125 C 23.125 -7.601562 22.648438 -5.765625 21.703125 -4.265625 C 20.765625 -2.765625 19.507812 -1.632812 17.9375 -0.875 C 16.363281 -0.125 14.609375 0.25 12.671875 0.25 C 10.765625 0.25 9.035156 -0.125 7.484375 -0.875 C 5.941406 -1.632812 4.71875 -2.765625 3.8125 -4.265625 C 2.90625 -5.765625 2.453125 -7.601562 2.453125 -9.78125 L 2.453125 -25.578125 Z M 7.578125 -25.578125 "/></g></g></g><g fill="#6cf1b5" fill-opacity="1"><g transform="translate(356.01991, 70.519844)"><g><path d="M 24.40625 0 L 19.265625 0 L 7.65625 -17.546875 L 7.65625 0 L 2.53125 0 L 2.53125 -25.609375 L 7.65625 -25.609375 L 19.265625 -8.03125 L 19.265625 -25.609375 L 24.40625 -25.609375 Z M 24.40625 0 "/></g></g></g><g fill="#6cf1b5" fill-opacity="1"><g transform="translate(405.554657, 70.519844)"><g><path d="M 11.359375 0.25 C 9.578125 0.25 7.96875 -0.0507812 6.53125 -0.65625 C 5.101562 -1.269531 3.972656 -2.148438 3.140625 -3.296875 C 2.316406 -4.441406 1.894531 -5.796875 1.875 -7.359375 L 7.359375 -7.359375 C 7.429688 -6.316406 7.800781 -5.488281 8.46875 -4.875 C 9.144531 -4.257812 10.070312 -3.953125 11.25 -3.953125 C 12.445312 -3.953125 13.382812 -4.238281 14.0625 -4.8125 C 14.75 -5.382812 15.09375 -6.140625 15.09375 -7.078125 C 15.09375 -7.828125 14.859375 -8.445312 14.390625 -8.9375 C 13.929688 -9.425781 13.351562 -9.8125 12.65625 -10.09375 C 11.957031 -10.375 11 -10.6875 9.78125 -11.03125 C 8.125 -11.519531 6.773438 -12 5.734375 -12.46875 C 4.691406 -12.945312 3.796875 -13.664062 3.046875 -14.625 C 2.304688 -15.59375 1.9375 -16.882812 1.9375 -18.5 C 1.9375 -20.019531 2.316406 -21.335938 3.078125 -22.453125 C 3.835938 -23.578125 4.898438 -24.4375 6.265625 -25.03125 C 7.628906 -25.632812 9.191406 -25.9375 10.953125 -25.9375 C 13.585938 -25.9375 15.726562 -25.296875 17.375 -24.015625 C 19.03125 -22.734375 19.941406 -20.945312 20.109375 -18.65625 L 14.46875 -18.65625 C 14.425781 -19.53125 14.054688 -20.253906 13.359375 -20.828125 C 12.660156 -21.398438 11.738281 -21.6875 10.59375 -21.6875 C 9.59375 -21.6875 8.789062 -21.429688 8.1875 -20.921875 C 7.59375 -20.410156 7.296875 -19.664062 7.296875 -18.6875 C 7.296875 -18 7.519531 -17.429688 7.96875 -16.984375 C 8.414062 -16.535156 8.972656 -16.171875 9.640625 -15.890625 C 10.316406 -15.609375 11.269531 -15.28125 12.5 -14.90625 C 14.15625 -14.425781 15.507812 -13.941406 16.5625 -13.453125 C 17.613281 -12.960938 18.515625 -12.226562 19.265625 -11.25 C 20.023438 -10.269531 20.40625 -8.988281 20.40625 -7.40625 C 20.40625 -6.03125 20.050781 -4.753906 19.34375 -3.578125 C 18.632812 -2.410156 17.597656 -1.476562 16.234375 -0.78125 C 14.867188 -0.09375 13.242188 0.25 11.359375 0.25 Z M 11.359375 0.25 "/></g></g></g></svg>