<svg xmlns="http://www.w3.org/2000/svg" xmlns:xlink="http://www.w3.org/1999/xlink" width="600" zoomAndPan="magnify" viewBox="0 0 450 112.499997" height="150" preserveAspectRatio="xMidYMid meet" version="1.0"><defs><g/><clipPath id="3cd8d558f4"><path d="M 262.828125 27.011719 L 443.523438 27.011719 L 443.523438 107.652344 L 262.828125 107.652344 Z M 262.828125 27.011719 " clip-rule="nonzero"/></clipPath></defs><g clip-path="url(#3cd8d558f4)"><path fill="#b4b4b4" d="M 263.210938 94.199219 C 267.855469 99.085938 273.996094 102.144531 281.628906 103.386719 L 281.609375 103.382812 C 283.851562 103.546875 286.101562 103.371094 288.351562 102.847656 L 288.335938 102.851562 C 303.40625 98.199219 311.585938 96.140625 312.882812 96.671875 L 312.785156 96.65625 C 314.746094 96.585938 316.574219 96.78125 318.277344 97.238281 L 318.308594 97.253906 C 326.011719 100.683594 331.378906 102.464844 334.414062 102.597656 L 334.433594 102.601562 C 338.613281 103.128906 342.425781 102.433594 345.875 100.519531 L 345.863281 100.523438 C 346.867188 99.882812 347.382812 98.820312 347.410156 97.332031 L 347.410156 97.347656 L 345.6875 63.5 L 345.710938 63.59375 C 345.375 62.929688 344.820312 62.53125 344.050781 62.402344 L 344.101562 62.402344 C 336.898438 62.792969 330.539062 61.777344 325.027344 59.359375 C 321.550781 57.808594 319.867188 55.210938 319.972656 51.566406 L 319.972656 51.585938 C 319.839844 48.707031 325.203125 42.996094 336.0625 34.457031 L 336.070312 34.453125 C 342.820312 29.484375 349.554688 27.078125 356.273438 27.234375 L 356.28125 27.234375 C 365.210938 27.832031 372.191406 30.066406 377.222656 33.945312 C 387.683594 41.996094 392.847656 48.25 392.714844 52.707031 L 392.710938 52.75 C 391.359375 58.835938 383.425781 62.136719 368.910156 62.648438 C 368.792969 62.652344 368.691406 62.566406 368.675781 62.449219 C 368.660156 62.332031 368.734375 62.222656 368.847656 62.195312 C 381.785156 59.011719 387.945312 56.171875 387.328125 53.671875 C 386.945312 52.105469 383.917969 50.617188 378.246094 49.207031 L 378.242188 49.207031 C 369.546875 46.945312 359.542969 46.113281 348.238281 46.703125 L 348.234375 46.703125 C 336.695312 47.207031 329.394531 49.039062 326.339844 52.195312 L 326.339844 52.199219 C 325.261719 53.285156 325.238281 54.335938 326.257812 55.347656 C 328.074219 57.140625 332.972656 58.839844 340.957031 60.445312 L 340.949219 60.445312 C 344.46875 60.996094 346.367188 61.125 346.636719 60.828125 C 346.632812 60.835938 346.628906 60.84375 346.625 60.855469 C 346.625 60.859375 346.625 60.867188 346.625 60.871094 C 346.605469 60.75 346.679688 60.636719 346.796875 60.609375 C 347.171875 60.519531 347.183594 59.742188 346.835938 58.277344 C 346.664062 57.570312 346.40625 56.714844 346.058594 55.710938 C 346.039062 55.660156 346.042969 55.597656 346.066406 55.546875 C 346.511719 54.515625 347.429688 53.933594 348.8125 53.796875 L 348.820312 53.796875 C 358.453125 53.175781 364.371094 54.539062 366.582031 57.886719 L 366.605469 57.941406 C 367.371094 60.269531 367.125 61.707031 365.871094 62.257812 L 365.839844 62.269531 C 363.390625 62.929688 359.800781 62.796875 355.066406 61.863281 L 355.234375 61.832031 C 352.007812 63.886719 349.53125 64.757812 347.808594 64.441406 L 347.9375 64.429688 C 347.546875 64.585938 347.277344 64.898438 347.125 65.359375 L 347.136719 65.300781 C 347.039062 67.40625 347.5625 68.53125 348.710938 68.671875 L 348.71875 68.671875 C 349.386719 68.769531 350.367188 68.222656 351.660156 67.027344 C 351.742188 66.953125 351.863281 66.945312 351.953125 67.011719 C 353.933594 68.476562 356.347656 68.382812 359.183594 66.722656 C 359.234375 66.691406 359.292969 66.683594 359.347656 66.695312 L 366.757812 68.285156 L 366.648438 68.289062 C 368.058594 67.898438 368.691406 67.257812 368.546875 66.367188 L 368.570312 66.433594 C 367.882812 65.101562 367.28125 64.570312 366.765625 64.835938 C 366.238281 65.105469 365.734375 66.078125 365.25 67.75 L 365.234375 67.789062 C 364.53125 69.167969 365.957031 76.046875 369.503906 88.4375 L 369.511719 88.46875 C 369.875 91.230469 369.5625 93.5 368.582031 95.285156 L 368.585938 95.273438 C 367.363281 97.777344 365.902344 99.296875 364.210938 99.832031 L 364.230469 99.824219 C 363.023438 100.320312 361.796875 100.621094 360.554688 100.730469 L 360.496094 100.726562 L 360.511719 100.730469 C 356.90625 100.433594 354.382812 100.480469 352.949219 100.875 L 352.941406 100.875 L 352.945312 100.875 C 351.652344 101.210938 351.054688 101.574219 351.15625 101.96875 C 351.175781 102.042969 351.21875 102.121094 351.289062 102.207031 L 351.335938 102.335938 C 351.335938 102.328125 351.332031 102.316406 351.328125 102.3125 C 351.53125 102.585938 352.976562 102.644531 355.675781 102.492188 C 356.355469 102.453125 357.109375 102.398438 357.933594 102.328125 L 357.890625 102.335938 L 371.402344 98.648438 L 371.417969 98.644531 C 373.730469 98.207031 376.507812 98.101562 379.742188 98.328125 L 379.738281 98.328125 C 384.351562 98.546875 387.53125 99.195312 389.269531 100.273438 L 389.308594 100.308594 C 390.453125 101.46875 390.671875 102.394531 389.96875 103.085938 C 389.515625 103.53125 388.640625 103.847656 387.355469 104.03125 L 387.203125 103.996094 C 386.019531 103.261719 385.601562 102.621094 385.9375 102.078125 C 386.375 101.378906 388.34375 100.996094 391.84375 100.925781 L 391.910156 100.933594 C 406.257812 105.089844 417.453125 106.972656 425.496094 106.578125 C 434.167969 106.199219 440.113281 103.511719 443.332031 98.515625 C 443.402344 98.410156 443.542969 98.378906 443.652344 98.449219 C 443.757812 98.515625 443.789062 98.660156 443.71875 98.765625 C 440.410156 103.894531 434.34375 106.648438 425.515625 107.035156 L 425.519531 107.035156 C 417.425781 107.429688 406.179688 105.542969 391.785156 101.375 L 391.851562 101.382812 C 388.515625 101.453125 386.675781 101.761719 386.328125 102.320312 C 386.152344 102.605469 386.523438 103.035156 387.445312 103.609375 L 387.292969 103.578125 C 388.480469 103.40625 389.265625 103.136719 389.648438 102.757812 C 390.132812 102.28125 389.910156 101.574219 388.984375 100.628906 L 389.027344 100.664062 C 387.355469 99.628906 384.253906 99.003906 379.714844 98.785156 L 379.710938 98.785156 C 376.511719 98.5625 373.777344 98.664062 371.503906 99.09375 L 371.523438 99.089844 L 358.011719 102.777344 L 357.972656 102.785156 C 357.136719 102.855469 356.378906 102.910156 355.703125 102.949219 C 352.839844 103.113281 351.257812 102.992188 350.960938 102.582031 L 350.957031 102.582031 C 350.910156 102.515625 350.882812 102.441406 350.878906 102.363281 L 350.925781 102.492188 C 350.820312 102.355469 350.75 102.21875 350.714844 102.082031 C 350.535156 101.394531 351.238281 100.84375 352.828125 100.433594 L 352.832031 100.433594 L 352.832031 100.429688 L 352.828125 100.433594 C 354.316406 100.023438 356.890625 99.972656 360.550781 100.273438 L 360.570312 100.277344 L 360.511719 100.273438 C 361.710938 100.167969 362.894531 99.878906 364.054688 99.402344 L 364.074219 99.394531 C 365.640625 98.898438 367.007812 97.460938 368.171875 95.074219 L 368.179688 95.0625 C 369.113281 93.367188 369.40625 91.1875 369.054688 88.527344 L 369.0625 88.5625 C 365.480469 76.058594 364.070312 69.066406 364.828125 67.582031 L 364.8125 67.621094 C 365.332031 65.824219 365.914062 64.757812 366.554688 64.429688 C 367.34375 64.023438 368.152344 64.621094 368.976562 66.226562 L 369 66.292969 C 369.1875 67.457031 368.445312 68.269531 366.769531 68.730469 L 366.660156 68.734375 L 359.253906 67.144531 L 359.417969 67.117188 C 356.402344 68.878906 353.824219 68.964844 351.679688 67.378906 L 351.972656 67.363281 C 350.570312 68.65625 349.464844 69.246094 348.648438 69.125 L 348.65625 69.125 C 347.226562 68.949219 346.566406 67.667969 346.675781 65.277344 L 346.6875 65.214844 C 346.886719 64.621094 347.246094 64.214844 347.761719 64.003906 L 347.890625 63.992188 C 349.496094 64.285156 351.863281 63.4375 354.988281 61.445312 C 355.035156 61.414062 355.097656 61.402344 355.15625 61.414062 C 359.816406 62.332031 363.339844 62.46875 365.71875 61.824219 L 365.6875 61.835938 C 366.6875 61.398438 366.847656 60.148438 366.171875 58.082031 L 366.199219 58.136719 C 364.085938 54.9375 358.304688 53.644531 348.851562 54.253906 L 348.859375 54.253906 C 347.652344 54.375 346.859375 54.863281 346.484375 55.730469 L 346.492188 55.5625 C 346.84375 56.578125 347.109375 57.449219 347.28125 58.171875 C 347.703125 59.933594 347.578125 60.894531 346.90625 61.054688 L 347.078125 60.792969 C 347.085938 60.839844 347.085938 60.882812 347.078125 60.925781 C 347.066406 61.003906 347.03125 61.078125 346.976562 61.136719 C 346.59375 61.554688 344.5625 61.476562 340.875 60.898438 L 340.867188 60.898438 C 332.792969 59.273438 327.816406 57.53125 325.9375 55.671875 C 324.695312 54.449219 324.722656 53.183594 326.011719 51.875 L 326.011719 51.878906 C 329.152344 48.632812 336.550781 46.753906 348.214844 46.246094 L 348.210938 46.246094 C 359.566406 45.652344 369.613281 46.492188 378.359375 48.765625 L 378.355469 48.765625 C 384.207031 50.21875 387.34375 51.816406 387.773438 53.5625 C 388.460938 56.359375 382.191406 59.386719 368.957031 62.640625 L 368.894531 62.1875 C 383.175781 61.6875 390.960938 58.507812 392.261719 52.652344 L 392.257812 52.695312 C 392.382812 48.390625 387.277344 42.261719 376.941406 34.308594 C 371.984375 30.488281 365.085938 28.28125 356.253906 27.691406 L 356.261719 27.695312 C 349.648438 27.539062 343.007812 29.914062 336.339844 34.820312 L 336.347656 34.816406 C 325.609375 43.261719 320.304688 48.84375 320.433594 51.5625 L 320.433594 51.582031 C 320.328125 55.019531 321.921875 57.472656 325.214844 58.941406 L 325.210938 58.941406 C 330.660156 61.328125 336.945312 62.332031 344.078125 61.945312 L 344.125 61.949219 C 345.046875 62.105469 345.710938 62.582031 346.121094 63.382812 L 346.144531 63.476562 L 347.867188 97.324219 L 347.867188 97.339844 C 347.839844 98.992188 347.253906 100.183594 346.109375 100.910156 L 346.097656 100.917969 C 342.5625 102.882812 338.65625 103.59375 334.375 103.054688 L 334.394531 103.054688 C 331.300781 102.917969 325.878906 101.125 318.125 97.671875 L 318.15625 97.683594 C 316.5 97.238281 314.714844 97.046875 312.800781 97.113281 L 312.707031 97.097656 C 311.515625 96.605469 303.4375 98.671875 288.46875 103.289062 L 288.453125 103.292969 C 286.160156 103.828125 283.867188 104.007812 281.574219 103.839844 L 281.554688 103.835938 C 273.820312 102.582031 267.59375 99.472656 262.878906 94.515625 C 262.789062 94.421875 262.792969 94.277344 262.886719 94.191406 C 262.976562 94.101562 263.121094 94.105469 263.210938 94.199219 Z M 263.210938 94.199219 " fill-opacity="1" fill-rule="nonzero"/></g><g fill="#6cf1b5" fill-opacity="1"><g transform="translate(12.195802, 91.599235)"><g><path d="M 11.578125 0.25 C 9.691406 0.25 8.003906 -0.0507812 6.515625 -0.65625 C 5.023438 -1.269531 3.832031 -2.175781 2.9375 -3.375 C 2.050781 -4.570312 1.582031 -6.007812 1.53125 -7.6875 L 8.203125 -7.6875 C 8.304688 -6.738281 8.640625 -6.015625 9.203125 -5.515625 C 9.765625 -5.015625 10.492188 -4.765625 11.390625 -4.765625 C 12.316406 -4.765625 13.050781 -4.976562 13.59375 -5.40625 C 14.132812 -5.832031 14.40625 -6.425781 14.40625 -7.1875 C 14.40625 -7.820312 14.191406 -8.34375 13.765625 -8.75 C 13.335938 -9.164062 12.8125 -9.507812 12.1875 -9.78125 C 11.5625 -10.050781 10.675781 -10.359375 9.53125 -10.703125 C 7.863281 -11.210938 6.503906 -11.722656 5.453125 -12.234375 C 4.410156 -12.742188 3.507812 -13.5 2.75 -14.5 C 1.988281 -15.507812 1.609375 -16.820312 1.609375 -18.4375 C 1.609375 -20.820312 2.472656 -22.691406 4.203125 -24.046875 C 5.941406 -25.410156 8.207031 -26.09375 11 -26.09375 C 13.832031 -26.09375 16.113281 -25.410156 17.84375 -24.046875 C 19.582031 -22.691406 20.507812 -20.804688 20.625 -18.390625 L 13.84375 -18.390625 C 13.800781 -19.222656 13.5 -19.875 12.9375 -20.34375 C 12.375 -20.820312 11.648438 -21.0625 10.765625 -21.0625 C 10.015625 -21.0625 9.40625 -20.859375 8.9375 -20.453125 C 8.476562 -20.054688 8.25 -19.476562 8.25 -18.71875 C 8.25 -17.894531 8.640625 -17.25 9.421875 -16.78125 C 10.203125 -16.3125 11.421875 -15.8125 13.078125 -15.28125 C 14.742188 -14.71875 16.09375 -14.175781 17.125 -13.65625 C 18.164062 -13.144531 19.0625 -12.398438 19.8125 -11.421875 C 20.570312 -10.453125 20.953125 -9.195312 20.953125 -7.65625 C 20.953125 -6.1875 20.578125 -4.851562 19.828125 -3.65625 C 19.085938 -2.46875 18.007812 -1.519531 16.59375 -0.8125 C 15.175781 -0.101562 13.503906 0.25 11.578125 0.25 Z M 11.578125 0.25 "/></g></g></g><g fill="#6cf1b5" fill-opacity="1"><g transform="translate(57.334477, 91.599235)"><g><path d="M 8.53125 -20.703125 L 8.53125 -15.5 L 16.921875 -15.5 L 16.921875 -10.65625 L 8.53125 -10.65625 L 8.53125 -5.015625 L 18.03125 -5.015625 L 18.03125 0 L 2.265625 0 L 2.265625 -25.71875 L 18.03125 -25.71875 L 18.03125 -20.703125 Z M 8.53125 -20.703125 "/></g></g></g><g fill="#6cf1b5" fill-opacity="1"><g transform="translate(99.762228, 91.599235)"><g><path d="M 20.78125 -25.71875 L 20.78125 -20.703125 L 13.953125 -20.703125 L 13.953125 0 L 7.6875 0 L 7.6875 -20.703125 L 0.875 -20.703125 L 0.875 -25.71875 Z M 20.78125 -25.71875 "/></g></g></g><g fill="#6cf1b5" fill-opacity="1"><g transform="translate(144.021682, 91.599235)"><g><path d="M 20.78125 -25.71875 L 20.78125 -20.703125 L 13.953125 -20.703125 L 13.953125 0 L 7.6875 0 L 7.6875 -20.703125 L 0.875 -20.703125 L 0.875 -25.71875 Z M 20.78125 -25.71875 "/></g></g></g><g fill="#6cf1b5" fill-opacity="1"><g transform="translate(188.281135, 91.599235)"><g><path d="M 8.53125 -25.71875 L 8.53125 0 L 2.265625 0 L 2.265625 -25.71875 Z M 8.53125 -25.71875 "/></g></g></g><g fill="#6cf1b5" fill-opacity="1"><g transform="translate(221.696915, 91.599235)"><g><path d="M 25.28125 0 L 19.015625 0 L 8.53125 -15.859375 L 8.53125 0 L 2.265625 0 L 2.265625 -25.71875 L 8.53125 -25.71875 L 19.015625 -9.78125 L 19.015625 -25.71875 L 25.28125 -25.71875 Z M 25.28125 0 "/></g></g></g><g fill="#6cf1b5" fill-opacity="1"><g transform="translate(271.854452, 91.599235)"><g><path d="M 19.34375 -17.59375 C 18.882812 -18.445312 18.21875 -19.097656 17.34375 -19.546875 C 16.476562 -19.992188 15.460938 -20.21875 14.296875 -20.21875 C 12.265625 -20.21875 10.632812 -19.550781 9.40625 -18.21875 C 8.1875 -16.894531 7.578125 -15.117188 7.578125 -12.890625 C 7.578125 -10.523438 8.21875 -8.675781 9.5 -7.34375 C 10.789062 -6.007812 12.554688 -5.34375 14.796875 -5.34375 C 16.335938 -5.34375 17.640625 -5.734375 18.703125 -6.515625 C 19.765625 -7.296875 20.539062 -8.421875 21.03125 -9.890625 L 13.078125 -9.890625 L 13.078125 -14.515625 L 26.71875 -14.515625 L 26.71875 -8.6875 C 26.25 -7.125 25.457031 -5.671875 24.34375 -4.328125 C 23.238281 -2.984375 21.828125 -1.894531 20.109375 -1.0625 C 18.398438 -0.226562 16.472656 0.1875 14.328125 0.1875 C 11.785156 0.1875 9.519531 -0.367188 7.53125 -1.484375 C 5.539062 -2.597656 3.988281 -4.144531 2.875 -6.125 C 1.757812 -8.101562 1.203125 -10.359375 1.203125 -12.890625 C 1.203125 -15.429688 1.757812 -17.695312 2.875 -19.6875 C 3.988281 -21.6875 5.535156 -23.238281 7.515625 -24.34375 C 9.492188 -25.457031 11.753906 -26.015625 14.296875 -26.015625 C 17.367188 -26.015625 19.960938 -25.269531 22.078125 -23.78125 C 24.191406 -22.289062 25.585938 -20.226562 26.265625 -17.59375 Z M 19.34375 -17.59375 "/></g></g></g><g fill="#6cf1b5" fill-opacity="1"><g transform="translate(322.378333, 91.599235)"><g><path d="M 11.578125 0.25 C 9.691406 0.25 8.003906 -0.0507812 6.515625 -0.65625 C 5.023438 -1.269531 3.832031 -2.175781 2.9375 -3.375 C 2.050781 -4.570312 1.582031 -6.007812 1.53125 -7.6875 L 8.203125 -7.6875 C 8.304688 -6.738281 8.640625 -6.015625 9.203125 -5.515625 C 9.765625 -5.015625 10.492188 -4.765625 11.390625 -4.765625 C 12.316406 -4.765625 13.050781 -4.976562 13.59375 -5.40625 C 14.132812 -5.832031 14.40625 -6.425781 14.40625 -7.1875 C 14.40625 -7.820312 14.191406 -8.34375 13.765625 -8.75 C 13.335938 -9.164062 12.8125 -9.507812 12.1875 -9.78125 C 11.5625 -10.050781 10.675781 -10.359375 9.53125 -10.703125 C 7.863281 -11.210938 6.503906 -11.722656 5.453125 -12.234375 C 4.410156 -12.742188 3.507812 -13.5 2.75 -14.5 C 1.988281 -15.507812 1.609375 -16.820312 1.609375 -18.4375 C 1.609375 -20.820312 2.472656 -22.691406 4.203125 -24.046875 C 5.941406 -25.410156 8.207031 -26.09375 11 -26.09375 C 13.832031 -26.09375 16.113281 -25.410156 17.84375 -24.046875 C 19.582031 -22.691406 20.507812 -20.804688 20.625 -18.390625 L 13.84375 -18.390625 C 13.800781 -19.222656 13.5 -19.875 12.9375 -20.34375 C 12.375 -20.820312 11.648438 -21.0625 10.765625 -21.0625 C 10.015625 -21.0625 9.40625 -20.859375 8.9375 -20.453125 C 8.476562 -20.054688 8.25 -19.476562 8.25 -18.71875 C 8.25 -17.894531 8.640625 -17.25 9.421875 -16.78125 C 10.203125 -16.3125 11.421875 -15.8125 13.078125 -15.28125 C 14.742188 -14.71875 16.09375 -14.175781 17.125 -13.65625 C 18.164062 -13.144531 19.0625 -12.398438 19.8125 -11.421875 C 20.570312 -10.453125 20.953125 -9.195312 20.953125 -7.65625 C 20.953125 -6.1875 20.578125 -4.851562 19.828125 -3.65625 C 19.085938 -2.46875 18.007812 -1.519531 16.59375 -0.8125 C 15.175781 -0.101562 13.503906 0.25 11.578125 0.25 Z M 11.578125 0.25 "/></g></g></g></svg>