<svg xmlns="http://www.w3.org/2000/svg" xmlns:xlink="http://www.w3.org/1999/xlink" width="600" zoomAndPan="magnify" viewBox="0 0 450 112.499997" height="150" preserveAspectRatio="xMidYMid meet" version="1.0"><defs><g/><clipPath id="4e48f20271"><path d="M 300.808594 3 L 448.652344 3 L 448.652344 109 L 300.808594 109 Z M 300.808594 3 " clip-rule="nonzero"/></clipPath></defs><g clip-path="url(#4e48f20271)"><path fill="#b4b4b4" d="M 448.589844 101.378906 C 445.453125 98.894531 441.851562 96.875 438.171875 95.539062 C 434.019531 94.023438 429.820312 93.363281 425.691406 93.574219 C 421.121094 93.808594 417.648438 96.878906 414.289062 99.851562 C 412.84375 101.128906 411.351562 102.449219 409.808594 103.503906 C 401.617188 109.101562 391.457031 107.664062 384.375 105.480469 C 387.570312 105.132812 390.347656 104.320312 392.820312 103.007812 C 396.582031 101.011719 399.703125 97.71875 401.84375 93.484375 C 403.828125 89.550781 404.871094 85.058594 404.867188 80.488281 C 404.855469 71.023438 400.859375 62.148438 397.378906 55.476562 L 397.253906 55.238281 C 394.96875 50.851562 392.601562 46.316406 393.769531 41.855469 C 394.414062 39.390625 396.152344 37.222656 397.683594 35.3125 C 400.871094 31.335938 404.414062 27.703125 408.722656 27.992188 C 410.574219 28.117188 412.273438 28.96875 414.074219 29.875 C 414.957031 30.316406 415.867188 30.777344 416.808594 31.144531 C 418.398438 31.769531 420.191406 32.003906 421.734375 31.785156 C 423.632812 31.515625 425.046875 30.613281 425.824219 29.175781 C 426.648438 27.65625 426.585938 25.855469 425.648438 23.976562 C 424.761719 22.210938 423.316406 20.734375 422.253906 19.808594 C 414.421875 12.960938 404.746094 7.996094 394.265625 5.445312 C 383.789062 2.894531 372.910156 2.859375 362.804688 5.34375 C 361.125 5.757812 359.292969 6.398438 358.464844 8.039062 C 357.378906 10.191406 358.796875 12.804688 360.800781 13.898438 C 362.953125 15.070312 365.292969 15.132812 366.878906 14.976562 C 369.621094 14.710938 371.75 15.296875 373.90625 16.28125 C 372.882812 16.898438 372.214844 17.730469 371.914062 18.761719 C 371.5 20.183594 371.929688 21.527344 372.351562 22.828125 C 372.527344 23.378906 372.695312 23.898438 372.792969 24.410156 C 373.5 28.027344 371.003906 31.101562 368.359375 34.355469 C 367.285156 35.679688 366.175781 37.046875 365.289062 38.460938 C 361.292969 44.84375 361.898438 52.554688 362.484375 60.011719 C 362.710938 62.917969 362.949219 65.929688 362.902344 68.792969 C 362.863281 70.992188 362.65625 73.285156 362.457031 75.503906 C 361.898438 81.679688 361.320312 88.066406 364.230469 93.632812 C 365.5 96.054688 367.441406 98.269531 370.007812 100.21875 C 371.695312 101.503906 373.675781 102.699219 376.03125 103.855469 C 374.710938 103.726562 373.40625 103.558594 372.140625 103.371094 C 365.726562 102.425781 356.300781 100.585938 348.503906 95.570312 C 346.789062 94.46875 345.121094 93.195312 343.503906 91.964844 C 340.363281 89.570312 337.121094 87.09375 333.324219 85.675781 C 330.613281 84.660156 327.660156 84.203125 324.539062 84.3125 C 321.621094 84.414062 318.683594 85.003906 315.804688 86.066406 C 310.839844 87.894531 306.042969 91.042969 301.148438 95.691406 C 300.832031 95.992188 300.820312 96.492188 301.117188 96.808594 C 301.417969 97.125 301.917969 97.140625 302.234375 96.839844 C 306.972656 92.339844 311.589844 89.300781 316.351562 87.546875 C 322.027344 85.457031 327.859375 85.316406 332.769531 87.15625 C 336.347656 88.496094 339.359375 90.789062 342.546875 93.222656 C 344.1875 94.472656 345.882812 95.765625 347.648438 96.902344 C 351.046875 99.085938 354.875 100.820312 359.347656 102.203125 C 362.996094 103.332031 367.105469 104.226562 371.910156 104.933594 C 375.058594 105.398438 377.730469 105.640625 380.132812 105.667969 C 384.996094 107.585938 389.890625 108.710938 394.425781 108.9375 C 395.011719 108.964844 395.59375 108.980469 396.167969 108.980469 C 401.765625 108.980469 406.648438 107.582031 410.699219 104.808594 C 412.324219 103.699219 413.855469 102.34375 415.335938 101.035156 C 418.636719 98.117188 421.757812 95.355469 425.773438 95.152344 C 433.179688 94.777344 441.136719 97.496094 447.609375 102.617188 C 447.953125 102.886719 448.449219 102.828125 448.71875 102.488281 C 448.992188 102.144531 448.933594 101.648438 448.589844 101.378906 Z M 378.277344 103.167969 C 371.777344 100.230469 367.757812 96.964844 365.628906 92.898438 C 362.933594 87.746094 363.464844 81.871094 364.027344 75.644531 C 364.230469 73.398438 364.441406 71.074219 364.480469 68.816406 C 364.527344 65.878906 364.289062 62.832031 364.058594 59.886719 C 363.464844 52.355469 362.90625 45.238281 366.628906 39.296875 C 367.460938 37.964844 368.542969 36.636719 369.585938 35.355469 C 372.339844 31.960938 375.191406 28.449219 374.34375 24.105469 C 374.226562 23.503906 374.035156 22.914062 373.851562 22.34375 C 373.492188 21.222656 373.148438 20.160156 373.429688 19.203125 C 373.695312 18.300781 374.445312 17.628906 375.703125 17.175781 C 376.144531 17.40625 376.589844 17.648438 377.050781 17.894531 C 380.113281 19.550781 383.582031 21.421875 388.792969 22.378906 C 391.355469 22.847656 394.03125 23.023438 396.75 22.898438 C 397.824219 22.851562 398.726562 22.15625 399.050781 21.132812 C 399.371094 20.113281 399.035156 19.035156 398.1875 18.382812 C 395.925781 16.636719 393.457031 15.511719 390.847656 15.03125 C 386.8125 14.292969 382.726562 14.640625 378.773438 14.980469 C 377.644531 15.078125 376.679688 15.238281 375.851562 15.46875 C 373.085938 14.058594 370.390625 13.046875 366.726562 13.402344 C 365.359375 13.535156 363.355469 13.488281 361.554688 12.507812 C 360.226562 11.785156 359.210938 10.066406 359.875 8.75 C 360.414062 7.683594 361.851562 7.207031 363.183594 6.878906 C 383.34375 1.921875 405.582031 7.332031 421.214844 21 C 422.367188 22.007812 426.003906 25.519531 424.433594 28.425781 C 423.265625 30.578125 419.929688 30.675781 417.386719 29.675781 C 416.511719 29.332031 415.632812 28.890625 414.78125 28.460938 C 412.921875 27.527344 411 26.5625 408.828125 26.414062 C 406.441406 26.253906 404.132812 27.046875 401.765625 28.839844 C 399.707031 30.398438 397.921875 32.484375 396.449219 34.324219 C 394.820312 36.355469 392.96875 38.664062 392.238281 41.457031 C 390.917969 46.507812 393.539062 51.535156 395.851562 55.96875 L 395.976562 56.207031 C 399.375 62.71875 403.273438 71.367188 403.285156 80.488281 C 403.296875 89.707031 398.898438 97.996094 392.078125 101.613281 C 389.171875 103.152344 385.972656 103.839844 382.726562 104.035156 C 384.261719 100.308594 387.566406 97.304688 391.449219 96.207031 C 391.867188 96.089844 392.113281 95.652344 391.996094 95.234375 C 391.875 94.8125 391.4375 94.570312 391.019531 94.6875 C 388.648438 95.359375 386.433594 96.664062 384.617188 98.464844 C 383.40625 99.660156 382.410156 101.039062 381.679688 102.519531 C 381.152344 100.746094 380.492188 99.132812 379.402344 97.710938 C 377.835938 95.664062 374.960938 93.964844 372.070312 94.785156 C 371.648438 94.902344 371.40625 95.339844 371.523438 95.757812 C 371.644531 96.179688 372.078125 96.421875 372.5 96.304688 C 374.664062 95.691406 376.945312 97.101562 378.148438 98.671875 C 379.304688 100.183594 379.929688 102.023438 380.476562 104.097656 C 380.472656 104.097656 380.46875 104.097656 380.464844 104.097656 C 379.640625 103.769531 378.90625 103.453125 378.277344 103.167969 Z M 378.0625 16.644531 C 378.332031 16.609375 378.613281 16.582031 378.90625 16.554688 C 382.757812 16.226562 386.738281 15.886719 390.5625 16.585938 C 392.921875 17.019531 395.164062 18.042969 397.226562 19.632812 C 397.703125 20.003906 397.589844 20.507812 397.542969 20.65625 C 397.496094 20.804688 397.296875 21.292969 396.679688 21.320312 C 394.082031 21.4375 391.523438 21.269531 389.078125 20.824219 C 384.253906 19.941406 380.957031 18.207031 378.0625 16.644531 Z M 378.0625 16.644531 " fill-opacity="1" fill-rule="nonzero"/></g><g fill="#6cf1b5" fill-opacity="1"><g transform="translate(21.008159, 44.869987)"><g><path d="M 11.359375 0.25 C 9.578125 0.25 7.96875 -0.0507812 6.53125 -0.65625 C 5.101562 -1.269531 3.972656 -2.148438 3.140625 -3.296875 C 2.316406 -4.441406 1.894531 -5.796875 1.875 -7.359375 L 7.359375 -7.359375 C 7.429688 -6.316406 7.800781 -5.488281 8.46875 -4.875 C 9.144531 -4.257812 10.070312 -3.953125 11.25 -3.953125 C 12.445312 -3.953125 13.382812 -4.238281 14.0625 -4.8125 C 14.75 -5.382812 15.09375 -6.140625 15.09375 -7.078125 C 15.09375 -7.828125 14.859375 -8.445312 14.390625 -8.9375 C 13.929688 -9.425781 13.351562 -9.8125 12.65625 -10.09375 C 11.957031 -10.375 11 -10.6875 9.78125 -11.03125 C 8.125 -11.519531 6.773438 -12 5.734375 -12.46875 C 4.691406 -12.945312 3.796875 -13.664062 3.046875 -14.625 C 2.304688 -15.59375 1.9375 -16.882812 1.9375 -18.5 C 1.9375 -20.019531 2.316406 -21.335938 3.078125 -22.453125 C 3.835938 -23.578125 4.898438 -24.4375 6.265625 -25.03125 C 7.628906 -25.632812 9.191406 -25.9375 10.953125 -25.9375 C 13.585938 -25.9375 15.726562 -25.296875 17.375 -24.015625 C 19.03125 -22.734375 19.941406 -20.945312 20.109375 -18.65625 L 14.46875 -18.65625 C 14.425781 -19.53125 14.054688 -20.253906 13.359375 -20.828125 C 12.660156 -21.398438 11.738281 -21.6875 10.59375 -21.6875 C 9.59375 -21.6875 8.789062 -21.429688 8.1875 -20.921875 C 7.59375 -20.410156 7.296875 -19.664062 7.296875 -18.6875 C 7.296875 -18 7.519531 -17.429688 7.96875 -16.984375 C 8.414062 -16.535156 8.972656 -16.171875 9.640625 -15.890625 C 10.316406 -15.609375 11.269531 -15.28125 12.5 -14.90625 C 14.15625 -14.425781 15.507812 -13.941406 16.5625 -13.453125 C 17.613281 -12.960938 18.515625 -12.226562 19.265625 -11.25 C 20.023438 -10.269531 20.40625 -8.988281 20.40625 -7.40625 C 20.40625 -6.03125 20.050781 -4.753906 19.34375 -3.578125 C 18.632812 -2.410156 17.597656 -1.476562 16.234375 -0.78125 C 14.867188 -0.09375 13.242188 0.25 11.359375 0.25 Z M 11.359375 0.25 "/></g></g></g><g fill="#6cf1b5" fill-opacity="1"><g transform="translate(65.927031, 44.869987)"><g><path d="M 21.171875 -17.65625 C 21.171875 -16.289062 20.847656 -15.007812 20.203125 -13.8125 C 19.554688 -12.613281 18.539062 -11.644531 17.15625 -10.90625 C 15.78125 -10.175781 14.039062 -9.8125 11.9375 -9.8125 L 7.65625 -9.8125 L 7.65625 0 L 2.53125 0 L 2.53125 -25.578125 L 11.9375 -25.578125 C 13.914062 -25.578125 15.601562 -25.234375 17 -24.546875 C 18.394531 -23.859375 19.4375 -22.914062 20.125 -21.71875 C 20.820312 -20.53125 21.171875 -19.175781 21.171875 -17.65625 Z M 11.71875 -13.953125 C 13.132812 -13.953125 14.1875 -14.273438 14.875 -14.921875 C 15.5625 -15.578125 15.90625 -16.488281 15.90625 -17.65625 C 15.90625 -20.144531 14.507812 -21.390625 11.71875 -21.390625 L 7.65625 -21.390625 L 7.65625 -13.953125 Z M 11.71875 -13.953125 "/></g></g></g><g fill="#6cf1b5" fill-opacity="1"><g transform="translate(110.809274, 44.869987)"><g><path d="M 7.65625 -21.4375 L 7.65625 -15.015625 L 16.265625 -15.015625 L 16.265625 -10.953125 L 7.65625 -10.953125 L 7.65625 -4.171875 L 17.375 -4.171875 L 17.375 0 L 2.53125 0 L 2.53125 -25.609375 L 17.375 -25.609375 L 17.375 -21.4375 Z M 7.65625 -21.4375 "/></g></g></g><g fill="#6cf1b5" fill-opacity="1"><g transform="translate(152.907321, 44.869987)"><g><path d="M 1.28125 -12.828125 C 1.28125 -15.335938 1.847656 -17.585938 2.984375 -19.578125 C 4.117188 -21.578125 5.671875 -23.128906 7.640625 -24.234375 C 9.609375 -25.347656 11.8125 -25.90625 14.25 -25.90625 C 17.113281 -25.90625 19.617188 -25.171875 21.765625 -23.703125 C 23.910156 -22.242188 25.410156 -20.21875 26.265625 -17.625 L 20.375 -17.625 C 19.789062 -18.84375 18.96875 -19.753906 17.90625 -20.359375 C 16.84375 -20.972656 15.613281 -21.28125 14.21875 -21.28125 C 12.726562 -21.28125 11.398438 -20.929688 10.234375 -20.234375 C 9.078125 -19.546875 8.175781 -18.566406 7.53125 -17.296875 C 6.882812 -16.023438 6.5625 -14.535156 6.5625 -12.828125 C 6.5625 -11.140625 6.882812 -9.65625 7.53125 -8.375 C 8.175781 -7.09375 9.078125 -6.101562 10.234375 -5.40625 C 11.398438 -4.707031 12.726562 -4.359375 14.21875 -4.359375 C 15.613281 -4.359375 16.84375 -4.671875 17.90625 -5.296875 C 18.96875 -5.921875 19.789062 -6.84375 20.375 -8.0625 L 26.265625 -8.0625 C 25.410156 -5.445312 23.914062 -3.410156 21.78125 -1.953125 C 19.644531 -0.503906 17.132812 0.21875 14.25 0.21875 C 11.8125 0.21875 9.609375 -0.332031 7.640625 -1.4375 C 5.671875 -2.550781 4.117188 -4.097656 2.984375 -6.078125 C 1.847656 -8.054688 1.28125 -10.304688 1.28125 -12.828125 Z M 1.28125 -12.828125 "/></g></g></g><g fill="#6cf1b5" fill-opacity="1"><g transform="translate(203.651005, 44.869987)"><g><path d="M 7.65625 -25.578125 L 7.65625 0 L 2.53125 0 L 2.53125 -25.578125 Z M 7.65625 -25.578125 "/></g></g></g><g fill="#6cf1b5" fill-opacity="1"><g transform="translate(236.444007, 44.869987)"><g><path d="M 7.65625 -21.4375 L 7.65625 -15.015625 L 16.265625 -15.015625 L 16.265625 -10.953125 L 7.65625 -10.953125 L 7.65625 -4.171875 L 17.375 -4.171875 L 17.375 0 L 2.53125 0 L 2.53125 -25.609375 L 17.375 -25.609375 L 17.375 -21.4375 Z M 7.65625 -21.4375 "/></g></g></g><g fill="#6cf1b5" fill-opacity="1"><g transform="translate(278.542043, 44.869987)"><g><path d="M 11.359375 0.25 C 9.578125 0.25 7.96875 -0.0507812 6.53125 -0.65625 C 5.101562 -1.269531 3.972656 -2.148438 3.140625 -3.296875 C 2.316406 -4.441406 1.894531 -5.796875 1.875 -7.359375 L 7.359375 -7.359375 C 7.429688 -6.316406 7.800781 -5.488281 8.46875 -4.875 C 9.144531 -4.257812 10.070312 -3.953125 11.25 -3.953125 C 12.445312 -3.953125 13.382812 -4.238281 14.0625 -4.8125 C 14.75 -5.382812 15.09375 -6.140625 15.09375 -7.078125 C 15.09375 -7.828125 14.859375 -8.445312 14.390625 -8.9375 C 13.929688 -9.425781 13.351562 -9.8125 12.65625 -10.09375 C 11.957031 -10.375 11 -10.6875 9.78125 -11.03125 C 8.125 -11.519531 6.773438 -12 5.734375 -12.46875 C 4.691406 -12.945312 3.796875 -13.664062 3.046875 -14.625 C 2.304688 -15.59375 1.9375 -16.882812 1.9375 -18.5 C 1.9375 -20.019531 2.316406 -21.335938 3.078125 -22.453125 C 3.835938 -23.578125 4.898438 -24.4375 6.265625 -25.03125 C 7.628906 -25.632812 9.191406 -25.9375 10.953125 -25.9375 C 13.585938 -25.9375 15.726562 -25.296875 17.375 -24.015625 C 19.03125 -22.734375 19.941406 -20.945312 20.109375 -18.65625 L 14.46875 -18.65625 C 14.425781 -19.53125 14.054688 -20.253906 13.359375 -20.828125 C 12.660156 -21.398438 11.738281 -21.6875 10.59375 -21.6875 C 9.59375 -21.6875 8.789062 -21.429688 8.1875 -20.921875 C 7.59375 -20.410156 7.296875 -19.664062 7.296875 -18.6875 C 7.296875 -18 7.519531 -17.429688 7.96875 -16.984375 C 8.414062 -16.535156 8.972656 -16.171875 9.640625 -15.890625 C 10.316406 -15.609375 11.269531 -15.28125 12.5 -14.90625 C 14.15625 -14.425781 15.507812 -13.941406 16.5625 -13.453125 C 17.613281 -12.960938 18.515625 -12.226562 19.265625 -11.25 C 20.023438 -10.269531 20.40625 -8.988281 20.40625 -7.40625 C 20.40625 -6.03125 20.050781 -4.753906 19.34375 -3.578125 C 18.632812 -2.410156 17.597656 -1.476562 16.234375 -0.78125 C 14.867188 -0.09375 13.242188 0.25 11.359375 0.25 Z M 11.359375 0.25 "/></g></g></g><g fill="#6cf1b5" fill-opacity="1"><g transform="translate(21.008159, 95.64432)"><g><path d="M 30.40625 -25.578125 L 30.40625 0 L 25.28125 0 L 25.28125 -16.640625 L 18.4375 0 L 14.546875 0 L 7.65625 -16.640625 L 7.65625 0 L 2.53125 0 L 2.53125 -25.578125 L 8.359375 -25.578125 L 16.484375 -6.5625 L 24.625 -25.578125 Z M 30.40625 -25.578125 "/></g></g></g><g fill="#6cf1b5" fill-opacity="1"><g transform="translate(76.550903, 95.64432)"><g><path d="M 18.203125 -4.875 L 8.03125 -4.875 L 6.34375 0 L 0.953125 0 L 10.15625 -25.609375 L 16.125 -25.609375 L 25.3125 0 L 19.890625 0 Z M 16.8125 -8.984375 L 13.125 -19.671875 L 9.421875 -8.984375 Z M 16.8125 -8.984375 "/></g></g></g><g fill="#6cf1b5" fill-opacity="1"><g transform="translate(125.389613, 95.64432)"><g><path d="M 24.40625 0 L 19.265625 0 L 7.65625 -17.546875 L 7.65625 0 L 2.53125 0 L 2.53125 -25.609375 L 7.65625 -25.609375 L 19.265625 -8.03125 L 19.265625 -25.609375 L 24.40625 -25.609375 Z M 24.40625 0 "/></g></g></g><g fill="#6cf1b5" fill-opacity="1"><g transform="translate(174.924373, 95.64432)"><g><path d="M 18.203125 -4.875 L 8.03125 -4.875 L 6.34375 0 L 0.953125 0 L 10.15625 -25.609375 L 16.125 -25.609375 L 25.3125 0 L 19.890625 0 Z M 16.8125 -8.984375 L 13.125 -19.671875 L 9.421875 -8.984375 Z M 16.8125 -8.984375 "/></g></g></g><g fill="#6cf1b5" fill-opacity="1"><g transform="translate(223.763095, 95.64432)"><g><path d="M 20.328125 -17.875 C 19.742188 -18.957031 18.9375 -19.773438 17.90625 -20.328125 C 16.882812 -20.890625 15.691406 -21.171875 14.328125 -21.171875 C 12.816406 -21.171875 11.472656 -20.828125 10.296875 -20.140625 C 9.117188 -19.460938 8.203125 -18.488281 7.546875 -17.21875 C 6.890625 -15.945312 6.5625 -14.484375 6.5625 -12.828125 C 6.5625 -11.117188 6.894531 -9.628906 7.5625 -8.359375 C 8.238281 -7.085938 9.175781 -6.109375 10.375 -5.421875 C 11.570312 -4.734375 12.960938 -4.390625 14.546875 -4.390625 C 16.503906 -4.390625 18.101562 -4.910156 19.34375 -5.953125 C 20.59375 -6.992188 21.410156 -8.441406 21.796875 -10.296875 L 13 -10.296875 L 13 -14.21875 L 26.859375 -14.21875 L 26.859375 -9.75 C 26.515625 -7.96875 25.78125 -6.316406 24.65625 -4.796875 C 23.53125 -3.285156 22.082031 -2.070312 20.3125 -1.15625 C 18.539062 -0.238281 16.554688 0.21875 14.359375 0.21875 C 11.890625 0.21875 9.660156 -0.332031 7.671875 -1.4375 C 5.679688 -2.550781 4.117188 -4.097656 2.984375 -6.078125 C 1.847656 -8.054688 1.28125 -10.304688 1.28125 -12.828125 C 1.28125 -15.335938 1.847656 -17.585938 2.984375 -19.578125 C 4.117188 -21.578125 5.679688 -23.128906 7.671875 -24.234375 C 9.660156 -25.347656 11.878906 -25.90625 14.328125 -25.90625 C 17.210938 -25.90625 19.71875 -25.203125 21.84375 -23.796875 C 23.96875 -22.390625 25.429688 -20.414062 26.234375 -17.875 Z M 20.328125 -17.875 "/></g></g></g><g fill="#6cf1b5" fill-opacity="1"><g transform="translate(274.506756, 95.64432)"><g><path d="M 7.65625 -21.4375 L 7.65625 -15.015625 L 16.265625 -15.015625 L 16.265625 -10.953125 L 7.65625 -10.953125 L 7.65625 -4.171875 L 17.375 -4.171875 L 17.375 0 L 2.53125 0 L 2.53125 -25.609375 L 17.375 -25.609375 L 17.375 -21.4375 Z M 7.65625 -21.4375 "/></g></g></g><g fill="#6cf1b5" fill-opacity="1"><g transform="translate(316.604815, 95.64432)"><g><path d="M 15.71875 0 L 10.078125 -9.96875 L 7.65625 -9.96875 L 7.65625 0 L 2.53125 0 L 2.53125 -25.578125 L 12.125 -25.578125 C 14.101562 -25.578125 15.785156 -25.226562 17.171875 -24.53125 C 18.566406 -23.832031 19.613281 -22.890625 20.3125 -21.703125 C 21.007812 -20.523438 21.359375 -19.203125 21.359375 -17.734375 C 21.359375 -16.046875 20.867188 -14.523438 19.890625 -13.171875 C 18.921875 -11.816406 17.46875 -10.882812 15.53125 -10.375 L 21.65625 0 Z M 7.65625 -13.8125 L 11.9375 -13.8125 C 13.332031 -13.8125 14.367188 -14.144531 15.046875 -14.8125 C 15.734375 -15.488281 16.078125 -16.425781 16.078125 -17.625 C 16.078125 -18.800781 15.734375 -19.710938 15.046875 -20.359375 C 14.367188 -21.003906 13.332031 -21.328125 11.9375 -21.328125 L 7.65625 -21.328125 Z M 7.65625 -13.8125 "/></g></g></g></svg>